<?xml version="1.0" standalone="no"?>
 <!DOCTYPE svg PUBLIC "-//W3C//DTD SVG 1.1//EN" 
 "http://www.w3.org/Graphics/SVG/1.1/DTD/svg11.dtd"> 
<svg
  xmlns:svg="http://www.w3.org/2000/svg"
  xmlns="http://www.w3.org/2000/svg"
  xmlns:xlink="http://www.w3.org/1999/xlink"
  version="1.1"
  width="29.700220cm" height="21.000720cm" viewBox="0 0 116930 82680">
<title>SVG Picture created as 20m_qrp-IF Strip.svg date 2022/03/02 22:34:12 </title>
  <desc>Picture generated by Eeschema-SVG </desc>
<g style="fill:#000000; fill-opacity:1.000000;stroke:#000000; stroke-opacity:1.000000;
stroke-linecap:round; stroke-linejoin:round;"
 transform="translate(0 0) scale(1 1)">
</g>
<g style="fill:#840000; fill-opacity:0.0; 
stroke:#840000; stroke-width:0.000000; stroke-opacity:1; 
stroke-linecap:round; stroke-linejoin:round;">
</g>
<g style="fill:#840000; fill-opacity:0.0; 
stroke:#840000; stroke-width:60.000000; stroke-opacity:1; 
stroke-linecap:round; stroke-linejoin:round;">
<rect x="69685.905512" y="65357.165354" width="42519.685039" height="12598.425197" rx="0.000000" />
<rect x="3937.007874" y="3937.007874" width="109055.984252" height="74805.984252" rx="0.000000" />
<rect x="4724.409449" y="4724.409449" width="107481.181102" height="73231.181102" rx="0.000000" />
<path d="M23622 4724
L23622 3937
" />
<path d="M43307 4724
L43307 3937
" />
<path d="M62992 4724
L62992 3937
" />
<path d="M82677 4724
L82677 3937
" />
<path d="M102362 4724
L102362 3937
" />
<text x="13779.527559" y="4586.614173"
textLength="549.960630" font-size="682.401575" lengthAdjust="spacingAndGlyphs"
text-anchor="start" opacity="0">1</text>
<g class="stroked-text"><desc>1</desc>
<path d="M14199 4562
L13907 4562
" />
<path d="M14053 4562
L14053 4050
L14004 4123
L13955 4172
L13907 4196
" />
</g><text x="33464.566929" y="4586.614173"
textLength="547.440945" font-size="682.401575" lengthAdjust="spacingAndGlyphs"
text-anchor="start" opacity="0">2</text>
<g class="stroked-text"><desc>2</desc>
<path d="M33592 4099
L33616 4074
L33665 4050
L33787 4050
L33835 4074
L33860 4099
L33884 4147
L33884 4196
L33860 4269
L33567 4562
L33884 4562
" />
</g><text x="53149.606299" y="4586.614173"
textLength="547.440945" font-size="682.401575" lengthAdjust="spacingAndGlyphs"
text-anchor="start" opacity="0">3</text>
<g class="stroked-text"><desc>3</desc>
<path d="M53252 4050
L53569 4050
L53398 4245
L53472 4245
L53520 4269
L53545 4294
L53569 4342
L53569 4464
L53545 4513
L53520 4537
L53472 4562
L53325 4562
L53277 4537
L53252 4513
" />
</g><text x="72834.645669" y="4586.614173"
textLength="547.440945" font-size="682.401575" lengthAdjust="spacingAndGlyphs"
text-anchor="start" opacity="0">4</text>
<g class="stroked-text"><desc>4</desc>
<path d="M73205 4221
L73205 4562
" />
<path d="M73083 4026
L72962 4391
L73278 4391
" />
</g><text x="92519.685039" y="4586.614173"
textLength="547.440945" font-size="682.401575" lengthAdjust="spacingAndGlyphs"
text-anchor="start" opacity="0">5</text>
<g class="stroked-text"><desc>5</desc>
<path d="M92915 4050
L92671 4050
L92647 4294
L92671 4269
L92720 4245
L92842 4245
L92890 4269
L92915 4294
L92939 4342
L92939 4464
L92915 4513
L92890 4537
L92842 4562
L92720 4562
L92671 4537
L92647 4513
" />
</g><text x="112204.724409" y="4586.614173"
textLength="547.440945" font-size="682.401575" lengthAdjust="spacingAndGlyphs"
text-anchor="start" opacity="0">6</text>
<g class="stroked-text"><desc>6</desc>
<path d="M112575 4050
L112478 4050
L112429 4074
L112405 4099
L112356 4172
L112332 4269
L112332 4464
L112356 4513
L112380 4537
L112429 4562
L112527 4562
L112575 4537
L112600 4513
L112624 4464
L112624 4342
L112600 4294
L112575 4269
L112527 4245
L112429 4245
L112380 4269
L112356 4294
L112332 4342
" />
</g><path d="M23622 77955
L23622 78742
" />
<path d="M43307 77955
L43307 78742
" />
<path d="M62992 77955
L62992 78742
" />
<path d="M82677 77955
L82677 78742
" />
<path d="M102362 77955
L102362 78742
" />
<text x="13779.527559" y="78605.196850"
textLength="547.440945" font-size="682.401575" lengthAdjust="spacingAndGlyphs"
text-anchor="start" opacity="0">1</text>
<g class="stroked-text"><desc>1</desc>
<path d="M14199 78580
L13907 78580
" />
<path d="M14053 78580
L14053 78068
L14004 78142
L13955 78190
L13907 78215
" />
</g><text x="33464.566929" y="78605.196850"
textLength="547.440945" font-size="682.401575" lengthAdjust="spacingAndGlyphs"
text-anchor="start" opacity="0">2</text>
<g class="stroked-text"><desc>2</desc>
<path d="M33592 78117
L33616 78093
L33665 78068
L33787 78068
L33835 78093
L33860 78117
L33884 78166
L33884 78215
L33860 78288
L33567 78580
L33884 78580
" />
</g><text x="53149.606299" y="78605.196850"
textLength="547.440945" font-size="682.401575" lengthAdjust="spacingAndGlyphs"
text-anchor="start" opacity="0">3</text>
<g class="stroked-text"><desc>3</desc>
<path d="M53252 78068
L53569 78068
L53398 78263
L53472 78263
L53520 78288
L53545 78312
L53569 78361
L53569 78483
L53545 78532
L53520 78556
L53472 78580
L53325 78580
L53277 78556
L53252 78532
" />
</g><text x="72834.645669" y="78605.196850"
textLength="547.440945" font-size="682.401575" lengthAdjust="spacingAndGlyphs"
text-anchor="start" opacity="0">4</text>
<g class="stroked-text"><desc>4</desc>
<path d="M73205 78239
L73205 78580
" />
<path d="M73083 78044
L72962 78410
L73278 78410
" />
</g><text x="92519.685039" y="78605.196850"
textLength="547.440945" font-size="682.401575" lengthAdjust="spacingAndGlyphs"
text-anchor="start" opacity="0">5</text>
<g class="stroked-text"><desc>5</desc>
<path d="M92915 78068
L92671 78068
L92647 78312
L92671 78288
L92720 78263
L92842 78263
L92890 78288
L92915 78312
L92939 78361
L92939 78483
L92915 78532
L92890 78556
L92842 78580
L92720 78580
L92671 78556
L92647 78532
" />
</g><text x="112204.724409" y="78605.196850"
textLength="547.440945" font-size="682.401575" lengthAdjust="spacingAndGlyphs"
text-anchor="start" opacity="0">6</text>
<g class="stroked-text"><desc>6</desc>
<path d="M112575 78068
L112478 78068
L112429 78093
L112405 78117
L112356 78190
L112332 78288
L112332 78483
L112356 78532
L112380 78556
L112429 78580
L112527 78580
L112575 78556
L112600 78532
L112624 78483
L112624 78361
L112600 78312
L112575 78288
L112527 78263
L112429 78263
L112380 78288
L112356 78312
L112332 78361
" />
</g><path d="M3937 23622
L4724 23622
" />
<path d="M3937 43307
L4724 43307
" />
<path d="M3937 62992
L4724 62992
" />
<text x="4330.708661" y="14035.433071"
textLength="498.700787" font-size="682.401575" lengthAdjust="spacingAndGlyphs"
text-anchor="middle" opacity="0">A</text>
<g class="stroked-text"><desc>A</desc>
<path d="M4208 13864
L4452 13864
" />
<path d="M4160 14011
L4330 13499
L4501 14011
" />
</g><text x="4330.708661" y="33720.472441"
textLength="571.811024" font-size="682.401575" lengthAdjust="spacingAndGlyphs"
text-anchor="middle" opacity="0">B</text>
<g class="stroked-text"><desc>B</desc>
<path d="M4367 33427
L4440 33452
L4464 33476
L4489 33525
L4489 33598
L4464 33647
L4440 33671
L4391 33696
L4196 33696
L4196 33184
L4367 33184
L4415 33208
L4440 33233
L4464 33281
L4464 33330
L4440 33379
L4415 33403
L4367 33427
L4196 33427
" />
</g><text x="4330.708661" y="53405.511811"
textLength="571.811024" font-size="682.401575" lengthAdjust="spacingAndGlyphs"
text-anchor="middle" opacity="0">C</text>
<g class="stroked-text"><desc>C</desc>
<path d="M4489 53332
L4464 53356
L4391 53381
L4342 53381
L4269 53356
L4221 53307
L4196 53259
L4172 53161
L4172 53088
L4196 52991
L4221 52942
L4269 52893
L4342 52869
L4391 52869
L4464 52893
L4489 52918
" />
</g><text x="4330.708661" y="73090.551181"
textLength="571.811024" font-size="682.401575" lengthAdjust="spacingAndGlyphs"
text-anchor="middle" opacity="0">D</text>
<g class="stroked-text"><desc>D</desc>
<path d="M4196 73066
L4196 72554
L4318 72554
L4391 72578
L4440 72627
L4464 72676
L4489 72773
L4489 72846
L4464 72944
L4440 72993
L4391 73041
L4318 73066
L4196 73066
" />
</g><path d="M112992 23622
L112205 23622
" />
<path d="M112992 43307
L112205 43307
" />
<path d="M112992 62992
L112205 62992
" />
<text x="112599.291339" y="14035.433071"
textLength="498.700787" font-size="682.401575" lengthAdjust="spacingAndGlyphs"
text-anchor="middle" opacity="0">A</text>
<g class="stroked-text"><desc>A</desc>
<path d="M112477 13864
L112721 13864
" />
<path d="M112428 14011
L112599 13499
L112769 14011
" />
</g><text x="112599.291339" y="33720.472441"
textLength="571.811024" font-size="682.401575" lengthAdjust="spacingAndGlyphs"
text-anchor="middle" opacity="0">B</text>
<g class="stroked-text"><desc>B</desc>
<path d="M112635 33427
L112708 33452
L112733 33476
L112757 33525
L112757 33598
L112733 33647
L112708 33671
L112660 33696
L112465 33696
L112465 33184
L112635 33184
L112684 33208
L112708 33233
L112733 33281
L112733 33330
L112708 33379
L112684 33403
L112635 33427
L112465 33427
" />
</g><text x="112599.291339" y="53405.511811"
textLength="571.811024" font-size="682.401575" lengthAdjust="spacingAndGlyphs"
text-anchor="middle" opacity="0">C</text>
<g class="stroked-text"><desc>C</desc>
<path d="M112757 53332
L112733 53356
L112660 53381
L112611 53381
L112538 53356
L112489 53307
L112465 53259
L112440 53161
L112440 53088
L112465 52991
L112489 52942
L112538 52893
L112611 52869
L112660 52869
L112733 52893
L112757 52918
" />
</g><text x="112599.291339" y="73090.551181"
textLength="571.811024" font-size="682.401575" lengthAdjust="spacingAndGlyphs"
text-anchor="middle" opacity="0">D</text>
<g class="stroked-text"><desc>D</desc>
<path d="M112465 73066
L112465 72554
L112587 72554
L112660 72578
L112708 72627
L112733 72676
L112757 72773
L112757 72846
L112733 72944
L112708 72993
L112660 73041
L112587 73066
L112465 73066
" />
</g><text x="78741.023622" y="76321.732283"
textLength="2759.645669" font-size="787.401575" lengthAdjust="spacingAndGlyphs"
text-anchor="start" opacity="0">Date: </text>
<g class="stroked-text"><desc>Date: </desc>
<path d="M78911 76293
L78911 75703
L79052 75703
L79136 75731
L79192 75787
L79220 75843
L79249 75956
L79249 76040
L79220 76152
L79192 76209
L79136 76265
L79052 76293
L78911 76293
" />
<path d="M79755 76293
L79755 75984
L79727 75928
L79670 75899
L79558 75899
L79502 75928
" />
<path d="M79755 76265
L79699 76293
L79558 76293
L79502 76265
L79474 76209
L79474 76152
L79502 76096
L79558 76068
L79699 76068
L79755 76040
" />
<path d="M79952 75899
L80177 75899
" />
<path d="M80036 75703
L80036 76209
L80064 76265
L80120 76293
L80177 76293
" />
<path d="M80598 76265
L80542 76293
L80430 76293
L80373 76265
L80345 76209
L80345 75984
L80373 75928
L80430 75899
L80542 75899
L80598 75928
L80627 75984
L80627 76040
L80345 76096
" />
<path d="M80880 76237
L80908 76265
L80880 76293
L80852 76265
L80880 76237
L80880 76293
" />
<path d="M80880 75928
L80908 75956
L80880 75984
L80852 75956
L80880 75928
L80880 75984
" />
</g><path d="M69685 76577
L112205 76577
" />
<text x="70079.606299" y="77424.094488"
textLength="12236.614173" font-size="787.401575" lengthAdjust="spacingAndGlyphs"
text-anchor="start" opacity="0">KiCad E.D.A.  kicad (6.0.1)</text>
<g class="stroked-text"><desc>KiCad E.D.A.  kicad (6.0.1)</desc>
<path d="M70250 77395
L70250 76805
" />
<path d="M70587 77395
L70334 77058
" />
<path d="M70587 76805
L70250 77142
" />
<path d="M70840 77395
L70840 77002
" />
<path d="M70840 76805
L70812 76833
L70840 76861
L70868 76833
L70840 76805
L70840 76861
" />
<path d="M71459 77339
L71431 77367
L71346 77395
L71290 77395
L71206 77367
L71150 77311
L71121 77255
L71093 77142
L71093 77058
L71121 76946
L71150 76889
L71206 76833
L71290 76805
L71346 76805
L71431 76833
L71459 76861
" />
<path d="M71965 77395
L71965 77086
L71937 77030
L71881 77002
L71768 77002
L71712 77030
" />
<path d="M71965 77367
L71909 77395
L71768 77395
L71712 77367
L71684 77311
L71684 77255
L71712 77199
L71768 77170
L71909 77170
L71965 77142
" />
<path d="M72499 77395
L72499 76805
" />
<path d="M72499 77367
L72443 77395
L72331 77395
L72274 77367
L72246 77339
L72218 77283
L72218 77114
L72246 77058
L72274 77030
L72331 77002
L72443 77002
L72499 77030
" />
<path d="M73231 77086
L73427 77086
" />
<path d="M73512 77395
L73231 77395
L73231 76805
L73512 76805
" />
<path d="M73765 77339
L73793 77367
L73765 77395
L73737 77367
L73765 77339
L73765 77395
" />
<path d="M74046 77395
L74046 76805
L74187 76805
L74271 76833
L74327 76889
L74355 76946
L74384 77058
L74384 77142
L74355 77255
L74327 77311
L74271 77367
L74187 77395
L74046 77395
" />
<path d="M74637 77339
L74665 77367
L74637 77395
L74609 77367
L74637 77339
L74637 77395
" />
<path d="M74890 77227
L75171 77227
" />
<path d="M74834 77395
L75030 76805
L75227 77395
" />
<path d="M75424 77339
L75452 77367
L75424 77395
L75396 77367
L75424 77339
L75424 77395
" />
<path d="M76605 77395
L76605 76805
" />
<path d="M76661 77170
L76830 77395
" />
<path d="M76830 77002
L76605 77227
" />
<path d="M77083 77395
L77083 77002
" />
<path d="M77083 76805
L77055 76833
L77083 76861
L77111 76833
L77083 76805
L77083 76861
" />
<path d="M77618 77367
L77561 77395
L77449 77395
L77393 77367
L77364 77339
L77336 77283
L77336 77114
L77364 77058
L77393 77030
L77449 77002
L77561 77002
L77618 77030
" />
<path d="M78124 77395
L78124 77086
L78096 77030
L78039 77002
L77927 77002
L77871 77030
" />
<path d="M78124 77367
L78067 77395
L77927 77395
L77871 77367
L77842 77311
L77842 77255
L77871 77199
L77927 77170
L78067 77170
L78124 77142
" />
<path d="M78658 77395
L78658 76805
" />
<path d="M78658 77367
L78602 77395
L78489 77395
L78433 77367
L78405 77339
L78377 77283
L78377 77114
L78405 77058
L78433 77030
L78489 77002
L78602 77002
L78658 77030
" />
<path d="M79558 77620
L79530 77592
L79474 77508
L79445 77452
L79417 77367
L79389 77227
L79389 77114
L79417 76974
L79445 76889
L79474 76833
L79530 76749
L79558 76721
" />
<path d="M80036 76805
L79923 76805
L79867 76833
L79839 76861
L79783 76946
L79755 77058
L79755 77283
L79783 77339
L79811 77367
L79867 77395
L79980 77395
L80036 77367
L80064 77339
L80092 77283
L80092 77142
L80064 77086
L80036 77058
L79980 77030
L79867 77030
L79811 77058
L79783 77086
L79755 77142
" />
<path d="M80345 77339
L80373 77367
L80345 77395
L80317 77367
L80345 77339
L80345 77395
" />
<path d="M80739 76805
L80795 76805
L80852 76833
L80880 76861
L80908 76917
L80936 77030
L80936 77170
L80908 77283
L80880 77339
L80852 77367
L80795 77395
L80739 77395
L80683 77367
L80655 77339
L80627 77283
L80598 77170
L80598 77030
L80627 76917
L80655 76861
L80683 76833
L80739 76805
" />
<path d="M81189 77339
L81217 77367
L81189 77395
L81161 77367
L81189 77339
L81189 77395
" />
<path d="M81780 77395
L81442 77395
" />
<path d="M81611 77395
L81611 76805
L81555 76889
L81498 76946
L81442 76974
" />
<path d="M81976 77620
L82004 77592
L82061 77508
L82089 77452
L82117 77367
L82145 77227
L82145 77114
L82117 76974
L82089 76889
L82061 76833
L82004 76749
L81976 76721
" />
</g><path d="M69685 75396
L112205 75396
" />
</g>
<g style="fill:#840000; fill-opacity:0.0; 
stroke:#840000; stroke-width:118.110236; stroke-opacity:1; 
stroke-linecap:round; stroke-linejoin:round;">
<text x="103544.173228" y="76321.732283"
textLength="2337.834646" font-size="787.401575" lengthAdjust="spacingAndGlyphs"
text-anchor="start" opacity="0">Rev: </text>
<g class="stroked-text"><desc>Rev: </desc>
<path d="M104098 76293
L103902 76012
" />
<path d="M103761 76293
L103761 75703
L103986 75703
L104042 75731
L104070 75759
L104098 75815
L104098 75899
L104070 75956
L104042 75984
L103986 76012
L103761 76012
" />
<path d="M104577 76265
L104520 76293
L104408 76293
L104352 76265
L104323 76209
L104323 75984
L104352 75928
L104408 75899
L104520 75899
L104577 75928
L104605 75984
L104605 76040
L104323 76096
" />
<path d="M104802 75899
L104942 76293
L105083 75899
" />
<path d="M105308 76237
L105336 76265
L105308 76293
L105280 76265
L105308 76237
L105308 76293
" />
<path d="M105308 75928
L105336 75956
L105308 75984
L105280 75956
L105308 75928
L105308 75984
" />
</g></g>
<g style="fill:#840000; fill-opacity:0.0; 
stroke:#840000; stroke-width:60.000000; stroke-opacity:1; 
stroke-linecap:round; stroke-linejoin:round;">
<text x="70079.606299" y="76321.732283"
textLength="3781.220472" font-size="787.401575" lengthAdjust="spacingAndGlyphs"
text-anchor="start" opacity="0">Size: A4</text>
<g class="stroked-text"><desc>Size: A4</desc>
<path d="M70222 76265
L70306 76293
L70447 76293
L70503 76265
L70531 76237
L70559 76181
L70559 76124
L70531 76068
L70503 76040
L70447 76012
L70334 75984
L70278 75956
L70250 75928
L70222 75871
L70222 75815
L70250 75759
L70278 75731
L70334 75703
L70475 75703
L70559 75731
" />
<path d="M70812 76293
L70812 75899
" />
<path d="M70812 75703
L70784 75731
L70812 75759
L70840 75731
L70812 75703
L70812 75759
" />
<path d="M71037 75899
L71346 75899
L71037 76293
L71346 76293
" />
<path d="M71796 76265
L71740 76293
L71628 76293
L71571 76265
L71543 76209
L71543 75984
L71571 75928
L71628 75899
L71740 75899
L71796 75928
L71825 75984
L71825 76040
L71543 76096
" />
<path d="M72078 76237
L72106 76265
L72078 76293
L72049 76265
L72078 76237
L72078 76293
" />
<path d="M72078 75928
L72106 75956
L72078 75984
L72049 75956
L72078 75928
L72078 75984
" />
<path d="M72781 76124
L73062 76124
" />
<path d="M72724 76293
L72921 75703
L73118 76293
" />
<path d="M73568 75899
L73568 76293
" />
<path d="M73427 75674
L73287 76096
L73652 76096
" />
</g><text x="103544.173228" y="77424.094488"
textLength="3350.196850" font-size="787.401575" lengthAdjust="spacingAndGlyphs"
text-anchor="start" opacity="0">Id: 5/7</text>
<g class="stroked-text"><desc>Id: 5/7</desc>
<path d="M103714 77395
L103714 76805
" />
<path d="M104249 77395
L104249 76805
" />
<path d="M104249 77367
L104192 77395
L104080 77395
L104024 77367
L103995 77339
L103967 77283
L103967 77114
L103995 77058
L104024 77030
L104080 77002
L104192 77002
L104249 77030
" />
<path d="M104530 77339
L104558 77367
L104530 77395
L104502 77367
L104530 77339
L104530 77395
" />
<path d="M104530 77030
L104558 77058
L104530 77086
L104502 77058
L104530 77030
L104530 77086
" />
<path d="M105542 76805
L105261 76805
L105233 77086
L105261 77058
L105317 77030
L105458 77030
L105514 77058
L105542 77086
L105570 77142
L105570 77283
L105542 77339
L105514 77367
L105458 77395
L105317 77395
L105261 77367
L105233 77339
" />
<path d="M106245 76777
L105739 77536
" />
<path d="M106386 76805
L106780 76805
L106526 77395
" />
</g><path d="M69685 73821
L112205 73821
" />
</g>
<g style="fill:#840000; fill-opacity:0.0; 
stroke:#840000; stroke-width:157.480315; stroke-opacity:1; 
stroke-linecap:round; stroke-linejoin:round;">
<text x="70079.606299" y="74924.094488"
textLength="3705.511811" font-size="1049.842520" lengthAdjust="spacingAndGlyphs"
text-anchor="start" opacity="0">Title: </text>
<g class="stroked-text"><desc>Title: </desc>
<path d="M70360 74099
L70810 74099
" />
<path d="M70486 74886
L70585 74099
" />
<path d="M70974 74886
L71039 74361
" />
<path d="M71072 74099
L71030 74136
L71063 74174
L71105 74136
L71072 74099
L71063 74174
" />
<path d="M71302 74361
L71602 74361
" />
<path d="M71447 74099
L71363 74774
L71391 74849
L71461 74886
L71536 74886
" />
<path d="M71911 74886
L71841 74849
L71812 74774
L71897 74099
" />
<path d="M72516 74849
L72436 74886
L72286 74886
L72216 74849
L72187 74774
L72225 74474
L72272 74399
L72352 74361
L72501 74361
L72572 74399
L72600 74474
L72591 74549
L72206 74624
" />
<path d="M72895 74811
L72928 74849
L72886 74886
L72853 74849
L72895 74811
L72886 74886
" />
<path d="M72947 74399
L72980 74436
L72937 74474
L72905 74436
L72947 74399
L72937 74474
" />
</g></g>
<g style="fill:#840000; fill-opacity:0.0; 
stroke:#840000; stroke-width:60.000000; stroke-opacity:1; 
stroke-linecap:round; stroke-linejoin:round;">
<text x="70079.606299" y="73408.346457"
textLength="8303.700787" font-size="787.401575" lengthAdjust="spacingAndGlyphs"
text-anchor="start" opacity="0">File: if1.kicad_sch</text>
<g class="stroked-text"><desc>File: if1.kicad_sch</desc>
<path d="M70447 73070
L70250 73070
" />
<path d="M70250 73380
L70250 72789
L70531 72789
" />
<path d="M70756 73380
L70756 72986
" />
<path d="M70756 72789
L70728 72817
L70756 72845
L70784 72817
L70756 72789
L70756 72845
" />
<path d="M71121 73380
L71065 73352
L71037 73295
L71037 72789
" />
<path d="M71571 73352
L71515 73380
L71403 73380
L71346 73352
L71318 73295
L71318 73070
L71346 73014
L71403 72986
L71515 72986
L71571 73014
L71600 73070
L71600 73127
L71318 73183
" />
<path d="M71853 73323
L71881 73352
L71853 73380
L71825 73352
L71853 73323
L71853 73380
" />
<path d="M71853 73014
L71881 73042
L71853 73070
L71825 73042
L71853 73014
L71853 73070
" />
<path d="M72584 73380
L72584 72986
" />
<path d="M72584 72789
L72556 72817
L72584 72845
L72612 72817
L72584 72789
L72584 72845
" />
<path d="M72781 72986
L73006 72986
" />
<path d="M72865 73380
L72865 72874
L72893 72817
L72949 72789
L73006 72789
" />
<path d="M73512 73380
L73174 73380
" />
<path d="M73343 73380
L73343 72789
L73287 72874
L73231 72930
L73174 72958
" />
<path d="M73765 73323
L73793 73352
L73765 73380
L73737 73352
L73765 73323
L73765 73380
" />
<path d="M74046 73380
L74046 72789
" />
<path d="M74102 73155
L74271 73380
" />
<path d="M74271 72986
L74046 73211
" />
<path d="M74524 73380
L74524 72986
" />
<path d="M74524 72789
L74496 72817
L74524 72845
L74552 72817
L74524 72789
L74524 72845
" />
<path d="M75058 73352
L75002 73380
L74890 73380
L74834 73352
L74805 73323
L74777 73267
L74777 73098
L74805 73042
L74834 73014
L74890 72986
L75002 72986
L75058 73014
" />
<path d="M75565 73380
L75565 73070
L75537 73014
L75480 72986
L75368 72986
L75312 73014
" />
<path d="M75565 73352
L75508 73380
L75368 73380
L75312 73352
L75283 73295
L75283 73239
L75312 73183
L75368 73155
L75508 73155
L75565 73127
" />
<path d="M76099 73380
L76099 72789
" />
<path d="M76099 73352
L76043 73380
L75930 73380
L75874 73352
L75846 73323
L75818 73267
L75818 73098
L75846 73042
L75874 73014
L75930 72986
L76043 72986
L76099 73014
" />
<path d="M76240 73436
L76690 73436
" />
<path d="M76802 73352
L76858 73380
L76971 73380
L77027 73352
L77055 73295
L77055 73267
L77027 73211
L76971 73183
L76886 73183
L76830 73155
L76802 73098
L76802 73070
L76830 73014
L76886 72986
L76971 72986
L77027 73014
" />
<path d="M77561 73352
L77505 73380
L77393 73380
L77336 73352
L77308 73323
L77280 73267
L77280 73098
L77308 73042
L77336 73014
L77393 72986
L77505 72986
L77561 73014
" />
<path d="M77814 73380
L77814 72789
" />
<path d="M78067 73380
L78067 73070
L78039 73014
L77983 72986
L77899 72986
L77842 73014
L77814 73042
" />
</g><path d="M69685 71459
L112205 71459
" />
<text x="70079.606299" y="72345.354331"
textLength="7793.425197" font-size="787.401575" lengthAdjust="spacingAndGlyphs"
text-anchor="start" opacity="0">Sheet: /IF Strip/</text>
<g class="stroked-text"><desc>Sheet: /IF Strip/</desc>
<path d="M70222 72289
L70306 72317
L70447 72317
L70503 72289
L70531 72260
L70559 72204
L70559 72148
L70531 72092
L70503 72064
L70447 72035
L70334 72007
L70278 71979
L70250 71951
L70222 71895
L70222 71839
L70250 71782
L70278 71754
L70334 71726
L70475 71726
L70559 71754
" />
<path d="M70812 72317
L70812 71726
" />
<path d="M71065 72317
L71065 72007
L71037 71951
L70981 71923
L70897 71923
L70840 71951
L70812 71979
" />
<path d="M71571 72289
L71515 72317
L71403 72317
L71346 72289
L71318 72232
L71318 72007
L71346 71951
L71403 71923
L71515 71923
L71571 71951
L71600 72007
L71600 72064
L71318 72120
" />
<path d="M72078 72289
L72021 72317
L71909 72317
L71853 72289
L71825 72232
L71825 72007
L71853 71951
L71909 71923
L72021 71923
L72078 71951
L72106 72007
L72106 72064
L71825 72120
" />
<path d="M72274 71923
L72499 71923
" />
<path d="M72359 71726
L72359 72232
L72387 72289
L72443 72317
L72499 72317
" />
<path d="M72696 72260
L72724 72289
L72696 72317
L72668 72289
L72696 72260
L72696 72317
" />
<path d="M72696 71951
L72724 71979
L72696 72007
L72668 71979
L72696 71951
L72696 72007
" />
<path d="M73849 71698
L73343 72457
" />
<path d="M74046 72317
L74046 71726
" />
<path d="M74524 72007
L74327 72007
" />
<path d="M74327 72317
L74327 71726
L74609 71726
" />
<path d="M75255 72289
L75340 72317
L75480 72317
L75537 72289
L75565 72260
L75593 72204
L75593 72148
L75565 72092
L75537 72064
L75480 72035
L75368 72007
L75312 71979
L75283 71951
L75255 71895
L75255 71839
L75283 71782
L75312 71754
L75368 71726
L75508 71726
L75593 71754
" />
<path d="M75762 71923
L75986 71923
" />
<path d="M75846 71726
L75846 72232
L75874 72289
L75930 72317
L75986 72317
" />
<path d="M76183 72317
L76183 71923
" />
<path d="M76183 72035
L76211 71979
L76240 71951
L76296 71923
L76352 71923
" />
<path d="M76549 72317
L76549 71923
" />
<path d="M76549 71726
L76521 71754
L76549 71782
L76577 71754
L76549 71726
L76549 71782
" />
<path d="M76830 71923
L76830 72514
" />
<path d="M76830 71951
L76886 71923
L76999 71923
L77055 71951
L77083 71979
L77111 72035
L77111 72204
L77083 72260
L77055 72289
L76999 72317
L76886 72317
L76830 72289
" />
<path d="M77786 71698
L77280 72457
" />
</g></g>
<g style="fill:#840000; fill-opacity:0.0; 
stroke:#840000; stroke-width:118.110236; stroke-opacity:1; 
stroke-linecap:round; stroke-linejoin:round;">
<text x="70079.606299" y="71164.251969"
textLength="60.000000" font-size="787.401575" lengthAdjust="spacingAndGlyphs"
text-anchor="start" opacity="0"></text>
<g class="stroked-text"><desc></desc>
</g></g>
<g style="fill:#840000; fill-opacity:0.0; 
stroke:#840000; stroke-width:60.000000; stroke-opacity:1; 
stroke-linecap:round; stroke-linejoin:round;">
<text x="70079.606299" y="69983.149606"
textLength="118.110236" font-size="787.401575" lengthAdjust="spacingAndGlyphs"
text-anchor="start" opacity="0"></text>
<g class="stroked-text"><desc></desc>
</g><text x="70079.606299" y="68802.047244"
textLength="60.000000" font-size="787.401575" lengthAdjust="spacingAndGlyphs"
text-anchor="start" opacity="0"></text>
<g class="stroked-text"><desc></desc>
</g><text x="70079.606299" y="67620.944882"
textLength="60.000000" font-size="787.401575" lengthAdjust="spacingAndGlyphs"
text-anchor="start" opacity="0"></text>
<g class="stroked-text"><desc></desc>
</g><text x="70079.606299" y="66439.842520"
textLength="60.000000" font-size="787.401575" lengthAdjust="spacingAndGlyphs"
text-anchor="start" opacity="0"></text>
<g class="stroked-text"><desc></desc>
</g><path d="M77559 75396
L77559 76577
" />
<path d="M102756 75396
L102756 77955
" />
<g >
</g>
<g style="fill:#FFFFC2; fill-opacity:0.0; 
stroke:#FFFFC2; stroke-width:60.000000; stroke-opacity:1; 
stroke-linecap:round; stroke-linejoin:round;">
</g>
<g style="fill:#FFFFC2; fill-opacity:0.6; 
stroke:#FFFFC2; stroke-width:0.039370; stroke-opacity:1; 
stroke-linecap:round; stroke-linejoin:round;">
<path style="fill:#FFFFC2; fill-opacity:0.6; 
stroke:#FFFFC2; stroke-width:0.039370; stroke-opacity:1; 
stroke-linecap:round; stroke-linejoin:round;fill-rule:evenodd;"
d="M 39000.000000,32000.000000
35000.000000,30000.000000
35000.000000,34000.000000
Z" /> 
</g>
<g style="fill:#840000; fill-opacity:0.6; 
stroke:#840000; stroke-width:0.039370; stroke-opacity:1; 
stroke-linecap:round; stroke-linejoin:round;">
</g>
<g style="fill:#840000; fill-opacity:0.0; 
stroke:#840000; stroke-width:100.000000; stroke-opacity:1; 
stroke-linecap:round; stroke-linejoin:round;">
<path style="fill:#840000; fill-opacity:0.0; 
stroke:#840000; stroke-width:100.000000; stroke-opacity:1; 
stroke-linecap:round; stroke-linejoin:round;fill:none"
d="M 39000.000000,32000.000000
35000.000000,30000.000000
35000.000000,34000.000000
Z" /> 
<path style="fill:#840000; fill-opacity:0.0; 
stroke:#840000; stroke-width:100.000000; stroke-opacity:1; 
stroke-linecap:round; stroke-linejoin:round;fill:none"
d="M 39000.000000,32000.000000
35000.000000,30000.000000
35000.000000,34000.000000
Z" /> 
</g>
<g style="fill:#840000; fill-opacity:0.0; 
stroke:#840000; stroke-width:60.000000; stroke-opacity:1; 
stroke-linecap:round; stroke-linejoin:round;">
<path d="M36000 30500
L36000 29000
" />
</g>
<g style="fill:#008484; fill-opacity:0.0; 
stroke:#008484; stroke-width:60.000000; stroke-opacity:1; 
stroke-linecap:round; stroke-linejoin:round;">
<g transform="rotate(-90.000000 36000.000000 30700.000000)">
<text x="36000.000000" y="30950.000000"
textLength="1345.708661" font-size="666.653543" lengthAdjust="spacingAndGlyphs"
text-anchor="end" opacity="0">Vcc</text>
</g>
<g class="stroked-text"><desc>Vcc</desc>
<path d="M35726 31968
L36226 31801
L35726 31634
" />
<path d="M36202 31253
L36226 31301
L36226 31396
L36202 31444
L36178 31468
L36130 31491
L35988 31491
L35940 31468
L35916 31444
L35892 31396
L35892 31301
L35916 31253
" />
<path d="M36202 30825
L36226 30872
L36226 30968
L36202 31015
L36178 31039
L36130 31063
L35988 31063
L35940 31039
L35916 31015
L35892 30968
L35892 30872
L35916 30825
" />
</g></g>
<g style="fill:#840000; fill-opacity:0.0; 
stroke:#840000; stroke-width:60.000000; stroke-opacity:1; 
stroke-linecap:round; stroke-linejoin:round;">
<g transform="rotate(-90.000000 35900.000000 29750.000000)">
<text x="35900.000000" y="29750.000000"
textLength="536.181102" font-size="666.653543" lengthAdjust="spacingAndGlyphs"
text-anchor="middle" opacity="0">1</text>
</g>
<g class="stroked-text"><desc>1</desc>
<path d="M35876 29607
L35876 29892
" />
<path d="M35876 29750
L35376 29750
L35447 29797
L35495 29845
L35519 29892
" />
</g><path d="M36000 33500
L36000 35000
" />
</g>
<g style="fill:#008484; fill-opacity:0.0; 
stroke:#008484; stroke-width:60.000000; stroke-opacity:1; 
stroke-linecap:round; stroke-linejoin:round;">
<g transform="rotate(-90.000000 36000.000000 33300.000000)">
<text x="36000.000000" y="33550.000000"
textLength="560.000000" font-size="666.653543" lengthAdjust="spacingAndGlyphs"
text-anchor="start" opacity="0">G</text>
</g>
<g class="stroked-text"><desc>G</desc>
<path d="M35750 32889
L35726 32936
L35726 33008
L35750 33079
L35797 33127
L35845 33150
L35940 33174
L36011 33174
L36107 33150
L36154 33127
L36202 33079
L36226 33008
L36226 32960
L36202 32889
L36178 32865
L36011 32865
L36011 32960
" />
</g></g>
<g style="fill:#840000; fill-opacity:0.0; 
stroke:#840000; stroke-width:60.000000; stroke-opacity:1; 
stroke-linecap:round; stroke-linejoin:round;">
<g transform="rotate(-90.000000 35900.000000 34250.000000)">
<text x="35900.000000" y="34250.000000"
textLength="536.181102" font-size="666.653543" lengthAdjust="spacingAndGlyphs"
text-anchor="middle" opacity="0">2</text>
</g>
<g class="stroked-text"><desc>2</desc>
<path d="M35423 34392
L35400 34369
L35376 34321
L35376 34202
L35400 34154
L35423 34130
L35471 34107
L35519 34107
L35590 34130
L35876 34416
L35876 34107
" />
</g><path d="M39000 32000
L40000 32000
" />
<text x="39500.000000" y="31900.000000"
textLength="536.181102" font-size="666.653543" lengthAdjust="spacingAndGlyphs"
text-anchor="middle" opacity="0">3</text>
<g class="stroked-text"><desc>3</desc>
<path d="M39333 31376
L39642 31376
L39476 31566
L39547 31566
L39595 31590
L39619 31614
L39642 31661
L39642 31780
L39619 31828
L39595 31852
L39547 31876
L39404 31876
L39357 31852
L39333 31828
" />
</g><path d="M35000 32000
L34000 32000
" />
<text x="34500.000000" y="31900.000000"
textLength="536.181102" font-size="666.653543" lengthAdjust="spacingAndGlyphs"
text-anchor="middle" opacity="0">6</text>
<g class="stroked-text"><desc>6</desc>
<path d="M34595 31376
L34500 31376
L34452 31400
L34428 31423
L34380 31495
L34357 31590
L34357 31780
L34380 31828
L34404 31852
L34452 31876
L34547 31876
L34595 31852
L34619 31828
L34642 31780
L34642 31661
L34619 31614
L34595 31590
L34547 31566
L34452 31566
L34404 31590
L34380 31614
L34357 31661
" />
</g></g>
<g style="fill:#008484; fill-opacity:0.0; 
stroke:#008484; stroke-width:60.000000; stroke-opacity:1; 
stroke-linecap:round; stroke-linejoin:round;">
<text x="38000.000000" y="35250.000000"
textLength="2012.362205" font-size="666.653543" lengthAdjust="spacingAndGlyphs"
text-anchor="middle" opacity="0">U501</text>
<g class="stroked-text"><desc>U501</desc>
<path d="M37142 34726
L37142 35130
L37166 35178
L37190 35202
L37238 35226
L37333 35226
L37380 35202
L37404 35178
L37428 35130
L37428 34726
" />
<path d="M37904 34726
L37666 34726
L37642 34964
L37666 34940
L37714 34916
L37833 34916
L37880 34940
L37904 34964
L37928 35011
L37928 35130
L37904 35178
L37880 35202
L37833 35226
L37714 35226
L37666 35202
L37642 35178
" />
<path d="M38238 34726
L38285 34726
L38333 34750
L38357 34773
L38380 34821
L38404 34916
L38404 35035
L38380 35130
L38357 35178
L38333 35202
L38285 35226
L38238 35226
L38190 35202
L38166 35178
L38142 35130
L38119 35035
L38119 34916
L38142 34821
L38166 34773
L38190 34750
L38238 34726
" />
<path d="M38880 35226
L38595 35226
" />
<path d="M38738 35226
L38738 34726
L38690 34797
L38642 34845
L38595 34869
" />
</g><text x="39000.000000" y="34250.000000"
textLength="3393.346457" font-size="666.653543" lengthAdjust="spacingAndGlyphs"
text-anchor="middle" opacity="0">BGA2818</text>
<g class="stroked-text"><desc>BGA2818</desc>
<path d="M37619 33964
L37690 33988
L37714 34011
L37738 34059
L37738 34130
L37714 34178
L37690 34202
L37642 34226
L37452 34226
L37452 33726
L37619 33726
L37666 33750
L37690 33773
L37714 33821
L37714 33869
L37690 33916
L37666 33940
L37619 33964
L37452 33964
" />
<path d="M38214 33750
L38166 33726
L38095 33726
L38023 33750
L37976 33797
L37952 33845
L37928 33940
L37928 34011
L37952 34107
L37976 34154
L38023 34202
L38095 34226
L38142 34226
L38214 34202
L38238 34178
L38238 34011
L38142 34011
" />
<path d="M38428 34083
L38666 34083
" />
<path d="M38380 34226
L38547 33726
L38714 34226
" />
<path d="M38857 33773
L38880 33750
L38928 33726
L39047 33726
L39095 33750
L39119 33773
L39142 33821
L39142 33869
L39119 33940
L38833 34226
L39142 34226
" />
<path d="M39428 33940
L39380 33916
L39357 33892
L39333 33845
L39333 33821
L39357 33773
L39380 33750
L39428 33726
L39523 33726
L39571 33750
L39595 33773
L39619 33821
L39619 33845
L39595 33892
L39571 33916
L39523 33940
L39428 33940
L39380 33964
L39357 33988
L39333 34035
L39333 34130
L39357 34178
L39380 34202
L39428 34226
L39523 34226
L39571 34202
L39595 34178
L39619 34130
L39619 34035
L39595 33988
L39571 33964
L39523 33940
" />
<path d="M40095 34226
L39809 34226
" />
<path d="M39952 34226
L39952 33726
L39904 33797
L39857 33845
L39809 33869
" />
<path d="M40380 33940
L40333 33916
L40309 33892
L40285 33845
L40285 33821
L40309 33773
L40333 33750
L40380 33726
L40476 33726
L40523 33750
L40547 33773
L40571 33821
L40571 33845
L40547 33892
L40523 33916
L40476 33940
L40380 33940
L40333 33964
L40309 33988
L40285 34035
L40285 34130
L40309 34178
L40333 34202
L40380 34226
L40476 34226
L40523 34202
L40547 34178
L40571 34130
L40571 34035
L40547 33988
L40523 33964
L40476 33940
" />
</g></g>
</g>
<g style="fill:#008484; fill-opacity:0.0; 
stroke:#008484; stroke-width:60.000000; stroke-opacity:1; 
stroke-linecap:round; stroke-linejoin:round;">
<g >
</g>
<g style="fill:#840000; fill-opacity:0.0; 
stroke:#840000; stroke-width:60.000000; stroke-opacity:1; 
stroke-linecap:round; stroke-linejoin:round;">
<path style="fill:#840000; fill-opacity:0.0; 
stroke:#840000; stroke-width:60.000000; stroke-opacity:1; 
stroke-linecap:round; stroke-linejoin:round;fill:none"
d="M 38500.000000,28250.000000
38500.000000,28750.000000
39000.000000,28750.000000
38500.000000,29250.000000
38000.000000,28750.000000
38500.000000,28750.000000
" /> 
</g>
<g style="fill:#008484; fill-opacity:0.0; 
stroke:#008484; stroke-width:60.000000; stroke-opacity:1; 
stroke-linecap:round; stroke-linejoin:round;">
<text x="38500.000000" y="30296.259843"
textLength="1583.818898" font-size="666.653543" lengthAdjust="spacingAndGlyphs"
text-anchor="middle" opacity="0">GND</text>
<g class="stroked-text"><desc>GND</desc>
<path d="M38119 29796
L38071 29772
L38000 29772
L37928 29796
L37880 29843
L37857 29891
L37833 29986
L37833 30058
L37857 30153
L37880 30200
L37928 30248
L38000 30272
L38047 30272
L38119 30248
L38142 30224
L38142 30058
L38047 30058
" />
<path d="M38357 30272
L38357 29772
L38642 30272
L38642 29772
" />
<path d="M38880 30272
L38880 29772
L39000 29772
L39071 29796
L39119 29843
L39142 29891
L39166 29986
L39166 30058
L39142 30153
L39119 30200
L39071 30248
L39000 30272
L38880 30272
" />
</g></g>
</g>
<g style="fill:#008484; fill-opacity:0.0; 
stroke:#008484; stroke-width:60.000000; stroke-opacity:1; 
stroke-linecap:round; stroke-linejoin:round;">
<g >
</g>
<g style="fill:#840000; fill-opacity:0.0; 
stroke:#840000; stroke-width:60.000000; stroke-opacity:1; 
stroke-linecap:round; stroke-linejoin:round;">
</g>
<g style="fill:#840000; fill-opacity:0.0; 
stroke:#840000; stroke-width:200.000000; stroke-opacity:1; 
stroke-linecap:round; stroke-linejoin:round;">
<path style="fill:#840000; fill-opacity:0.0; 
stroke:#840000; stroke-width:200.000000; stroke-opacity:1; 
stroke-linecap:round; stroke-linejoin:round;fill:none"
d="M 37700.000000,26550.000000
39300.000000,26550.000000
" /> 
<path style="fill:#840000; fill-opacity:0.0; 
stroke:#840000; stroke-width:200.000000; stroke-opacity:1; 
stroke-linecap:round; stroke-linejoin:round;fill:none"
d="M 37700.000000,25950.000000
39300.000000,25950.000000
" /> 
</g>
<g style="fill:#840000; fill-opacity:0.0; 
stroke:#840000; stroke-width:60.000000; stroke-opacity:1; 
stroke-linecap:round; stroke-linejoin:round;">
<path d="M38500 25850
L38500 24750
" />
<path d="M38500 26650
L38500 27750
" />
</g>
<g style="fill:#008484; fill-opacity:0.0; 
stroke:#008484; stroke-width:60.000000; stroke-opacity:1; 
stroke-linecap:round; stroke-linejoin:round;">
<text x="40645.551181" y="26142.322835"
textLength="1988.582677" font-size="666.653543" lengthAdjust="spacingAndGlyphs"
text-anchor="middle" opacity="0">C501</text>
<g class="stroked-text"><desc>C501</desc>
<path d="M40086 26070
L40062 26094
L39990 26118
L39943 26118
L39871 26094
L39824 26047
L39800 25999
L39776 25904
L39776 25832
L39800 25737
L39824 25689
L39871 25642
L39943 25618
L39990 25618
L40062 25642
L40086 25666
" />
<path d="M40538 25618
L40300 25618
L40276 25856
L40300 25832
L40347 25808
L40466 25808
L40514 25832
L40538 25856
L40562 25904
L40562 26023
L40538 26070
L40514 26094
L40466 26118
L40347 26118
L40300 26094
L40276 26070
" />
<path d="M40871 25618
L40919 25618
L40966 25642
L40990 25666
L41014 25713
L41038 25808
L41038 25928
L41014 26023
L40990 26070
L40966 26094
L40919 26118
L40871 26118
L40824 26094
L40800 26070
L40776 26023
L40752 25928
L40752 25808
L40776 25713
L40800 25666
L40824 25642
L40871 25618
" />
<path d="M41514 26118
L41228 26118
" />
<path d="M41371 26118
L41371 25618
L41324 25689
L41276 25737
L41228 25761
" />
</g><text x="40383.622047" y="27234.881890"
textLength="1464.763780" font-size="666.653543" lengthAdjust="spacingAndGlyphs"
text-anchor="middle" opacity="0">22n</text>
<g class="stroked-text"><desc>22n</desc>
<path d="M39776 26758
L39800 26734
L39847 26711
L39966 26711
L40014 26734
L40038 26758
L40062 26806
L40062 26853
L40038 26925
L39752 27211
L40062 27211
" />
<path d="M40252 26758
L40276 26734
L40324 26711
L40443 26711
L40490 26734
L40514 26758
L40538 26806
L40538 26853
L40514 26925
L40228 27211
L40538 27211
" />
<path d="M40752 26877
L40752 27211
" />
<path d="M40752 26925
L40776 26901
L40824 26877
L40895 26877
L40943 26901
L40966 26949
L40966 27211
" />
</g></g>
</g>
<g style="fill:#008484; fill-opacity:0.0; 
stroke:#008484; stroke-width:60.000000; stroke-opacity:1; 
stroke-linecap:round; stroke-linejoin:round;">
<g >
</g>
<g style="fill:#840000; fill-opacity:0.0; 
stroke:#840000; stroke-width:60.000000; stroke-opacity:1; 
stroke-linecap:round; stroke-linejoin:round;">
<path style="fill:#840000; fill-opacity:0.0; 
stroke:#840000; stroke-width:60.000000; stroke-opacity:1; 
stroke-linecap:round; stroke-linejoin:round;fill:none"
d="M 36000.000000,35750.000000
36000.000000,36250.000000
36500.000000,36250.000000
36000.000000,36750.000000
35500.000000,36250.000000
36000.000000,36250.000000
" /> 
</g>
<g style="fill:#008484; fill-opacity:0.0; 
stroke:#008484; stroke-width:60.000000; stroke-opacity:1; 
stroke-linecap:round; stroke-linejoin:round;">
<text x="36000.000000" y="37796.259843"
textLength="1583.818898" font-size="666.653543" lengthAdjust="spacingAndGlyphs"
text-anchor="middle" opacity="0">GND</text>
<g class="stroked-text"><desc>GND</desc>
<path d="M35619 37296
L35571 37272
L35500 37272
L35428 37296
L35380 37343
L35357 37391
L35333 37486
L35333 37558
L35357 37653
L35380 37700
L35428 37748
L35500 37772
L35547 37772
L35619 37748
L35642 37724
L35642 37558
L35547 37558
" />
<path d="M35857 37772
L35857 37272
L36142 37772
L36142 37272
" />
<path d="M36380 37772
L36380 37272
L36500 37272
L36571 37296
L36619 37343
L36642 37391
L36666 37486
L36666 37558
L36642 37653
L36619 37700
L36571 37748
L36500 37772
L36380 37772
" />
</g></g>
</g>
<g style="fill:#008484; fill-opacity:0.0; 
stroke:#008484; stroke-width:60.000000; stroke-opacity:1; 
stroke-linecap:round; stroke-linejoin:round;">
<g >
</g>
<g style="fill:#840000; fill-opacity:0.0; 
stroke:#840000; stroke-width:60.000000; stroke-opacity:1; 
stroke-linecap:round; stroke-linejoin:round;">
<path d="M43249.803166 35989.989895 A507.559055 507.559055 0.0 0 0 43749.966399 35500.193871" />
<path d="M43249.803166 34989.989895 A507.559055 507.559055 0.0 0 0 43749.966399 34500.193871" />
<path d="M43249.803166 33989.989895 A507.559055 507.559055 0.0 0 0 43749.966399 33500.193871" />
<path d="M43249.803166 32989.989895 A507.559055 507.559055 0.0 0 0 43749.966399 32500.193871" />
<path d="M43750.000000 35500.039370 A500.039370 500.039370 0.0 0 0 43249.960630 35000.000000" />
<path d="M43750.000000 34500.039370 A500.039370 500.039370 0.0 0 0 43249.960630 34000.000000" />
<path d="M43750.000000 33500.039370 A500.039370 500.039370 0.0 0 0 43249.960630 33000.000000" />
<path d="M43750.000000 32500.039370 A500.039370 500.039370 0.0 0 0 43249.960630 32000.000000" />
<path style="fill:#840000; fill-opacity:0.0; 
stroke:#840000; stroke-width:60.000000; stroke-opacity:1; 
stroke-linecap:round; stroke-linejoin:round;fill:none"
d="M 44000.000000,32000.000000
44000.000000,36000.000000
" /> 
<path style="fill:#840000; fill-opacity:0.0; 
stroke:#840000; stroke-width:60.000000; stroke-opacity:1; 
stroke-linecap:round; stroke-linejoin:round;fill:none"
d="M 44500.000000,36000.000000
44500.000000,32000.000000
" /> 
<path d="M44760.000000 34500.039370 A489.960630 489.960630 0.0 0 0 45249.960630 34990.000000" />
<path d="M44760.000000 33500.039370 A489.960630 489.960630 0.0 0 0 45249.960630 33990.000000" />
<path d="M44760.000000 32500.039370 A489.960630 489.960630 0.0 0 0 45249.960630 32990.000000" />
<path d="M44770.000000 35500.039370 A489.960630 489.960630 0.0 0 0 45259.960630 35990.000000" />
<path d="M45249.859356 34000.007748 A483.385827 483.385827 0.0 0 0 44760.018875 34500.216379" />
<path d="M45249.859356 33000.007748 A483.385827 483.385827 0.0 0 0 44760.018875 33500.216379" />
<path d="M45249.859356 32000.007748 A483.385827 483.385827 0.0 0 0 44760.018875 32500.216379" />
<path d="M45259.859356 35000.007748 A483.385827 483.385827 0.0 0 0 44770.018875 35500.216379" />
<path d="M43250 32000
L40250 32000
" />
<text x="41750.000000" y="31900.000000"
textLength="536.181102" font-size="666.653543" lengthAdjust="spacingAndGlyphs"
text-anchor="middle" opacity="0">1</text>
<g class="stroked-text"><desc>1</desc>
<path d="M41892 31876
L41607 31876
" />
<path d="M41750 31876
L41750 31376
L41702 31447
L41654 31495
L41607 31519
" />
</g><path d="M43250 36000
L40250 36000
" />
<text x="41750.000000" y="35900.000000"
textLength="536.181102" font-size="666.653543" lengthAdjust="spacingAndGlyphs"
text-anchor="middle" opacity="0">2</text>
<g class="stroked-text"><desc>2</desc>
<path d="M41607 35423
L41630 35400
L41678 35376
L41797 35376
L41845 35400
L41869 35423
L41892 35471
L41892 35519
L41869 35590
L41583 35876
L41892 35876
" />
</g><path d="M45250 36000
L48250 36000
" />
<text x="46750.000000" y="35900.000000"
textLength="536.181102" font-size="666.653543" lengthAdjust="spacingAndGlyphs"
text-anchor="middle" opacity="0">3</text>
<g class="stroked-text"><desc>3</desc>
<path d="M46583 35376
L46892 35376
L46726 35566
L46797 35566
L46845 35590
L46869 35614
L46892 35661
L46892 35780
L46869 35828
L46845 35852
L46797 35876
L46654 35876
L46607 35852
L46583 35828
" />
</g><path d="M45250 32000
L48250 32000
" />
<text x="46750.000000" y="31900.000000"
textLength="536.181102" font-size="666.653543" lengthAdjust="spacingAndGlyphs"
text-anchor="middle" opacity="0">4</text>
<g class="stroked-text"><desc>4</desc>
<path d="M46845 31542
L46845 31876
" />
<path d="M46726 31352
L46607 31709
L46916 31709
" />
</g></g>
<g style="fill:#008484; fill-opacity:0.0; 
stroke:#008484; stroke-width:60.000000; stroke-opacity:1; 
stroke-linecap:round; stroke-linejoin:round;">
<text x="44250.000000" y="30500.000000"
textLength="1869.527559" font-size="666.653543" lengthAdjust="spacingAndGlyphs"
text-anchor="middle" opacity="0">T501</text>
<g class="stroked-text"><desc>T501</desc>
<path d="M43392 29976
L43678 29976
" />
<path d="M43535 30476
L43535 29976
" />
<path d="M44083 29976
L43845 29976
L43821 30214
L43845 30190
L43892 30166
L44011 30166
L44059 30190
L44083 30214
L44107 30261
L44107 30380
L44083 30428
L44059 30452
L44011 30476
L43892 30476
L43845 30452
L43821 30428
" />
<path d="M44416 29976
L44464 29976
L44511 30000
L44535 30023
L44559 30071
L44583 30166
L44583 30285
L44559 30380
L44535 30428
L44511 30452
L44464 30476
L44416 30476
L44369 30452
L44345 30428
L44321 30380
L44297 30285
L44297 30166
L44321 30071
L44345 30023
L44369 30000
L44416 29976
" />
<path d="M45059 30476
L44773 30476
" />
<path d="M44916 30476
L44916 29976
L44869 30047
L44821 30095
L44773 30119
" />
</g><text x="44500.000000" y="31250.000000"
textLength="6274.291339" font-size="666.653543" lengthAdjust="spacingAndGlyphs"
text-anchor="middle" opacity="0">2:11 on type 43</text>
<g class="stroked-text"><desc>2:11 on type 43</desc>
<path d="M41488 30773
L41511 30750
L41559 30726
L41678 30726
L41726 30750
L41750 30773
L41773 30821
L41773 30869
L41750 30940
L41464 31226
L41773 31226
" />
<path d="M41988 31178
L42011 31202
L41988 31226
L41964 31202
L41988 31178
L41988 31226
" />
<path d="M41988 30916
L42011 30940
L41988 30964
L41964 30940
L41988 30916
L41988 30964
" />
<path d="M42488 31226
L42202 31226
" />
<path d="M42345 31226
L42345 30726
L42297 30797
L42250 30845
L42202 30869
" />
<path d="M42964 31226
L42678 31226
" />
<path d="M42821 31226
L42821 30726
L42773 30797
L42726 30845
L42678 30869
" />
<path d="M43630 31226
L43583 31202
L43559 31178
L43535 31130
L43535 30988
L43559 30940
L43583 30916
L43630 30892
L43702 30892
L43750 30916
L43773 30940
L43797 30988
L43797 31130
L43773 31178
L43750 31202
L43702 31226
L43630 31226
" />
<path d="M44011 30892
L44011 31226
" />
<path d="M44011 30940
L44035 30916
L44083 30892
L44154 30892
L44202 30916
L44226 30964
L44226 31226
" />
<path d="M44773 30892
L44964 30892
" />
<path d="M44845 30726
L44845 31154
L44869 31202
L44916 31226
L44964 31226
" />
<path d="M45083 30892
L45202 31226
" />
<path d="M45321 30892
L45202 31226
L45154 31345
L45130 31369
L45083 31392
" />
<path d="M45511 30892
L45511 31392
" />
<path d="M45511 30916
L45559 30892
L45654 30892
L45702 30916
L45726 30940
L45750 30988
L45750 31130
L45726 31178
L45702 31202
L45654 31226
L45559 31226
L45511 31202
" />
<path d="M46154 31202
L46107 31226
L46011 31226
L45964 31202
L45940 31154
L45940 30964
L45964 30916
L46011 30892
L46107 30892
L46154 30916
L46178 30964
L46178 31011
L45940 31059
" />
<path d="M46988 30892
L46988 31226
" />
<path d="M46869 30702
L46750 31059
L47059 31059
" />
<path d="M47202 30726
L47511 30726
L47345 30916
L47416 30916
L47464 30940
L47488 30964
L47511 31011
L47511 31130
L47488 31178
L47464 31202
L47416 31226
L47273 31226
L47226 31202
L47202 31178
" />
</g></g>
</g>
<g style="fill:#008484; fill-opacity:0.0; 
stroke:#008484; stroke-width:60.000000; stroke-opacity:1; 
stroke-linecap:round; stroke-linejoin:round;">
<g >
</g>
<g style="fill:#840000; fill-opacity:0.0; 
stroke:#840000; stroke-width:60.000000; stroke-opacity:1; 
stroke-linecap:round; stroke-linejoin:round;">
<path style="fill:#840000; fill-opacity:0.0; 
stroke:#840000; stroke-width:60.000000; stroke-opacity:1; 
stroke-linecap:round; stroke-linejoin:round;fill:none"
d="M 66200.000000,25000.000000
66500.000000,24500.000000
" /> 
<path style="fill:#840000; fill-opacity:0.0; 
stroke:#840000; stroke-width:60.000000; stroke-opacity:1; 
stroke-linecap:round; stroke-linejoin:round;fill:none"
d="M 66500.000000,25500.000000
66500.000000,24500.000000
" /> 
<path style="fill:#840000; fill-opacity:0.0; 
stroke:#840000; stroke-width:60.000000; stroke-opacity:1; 
stroke-linecap:round; stroke-linejoin:round;fill:none"
d="M 66500.000000,24500.000000
66800.000000,25000.000000
" /> 
</g>
<g style="fill:#008484; fill-opacity:0.0; 
stroke:#008484; stroke-width:60.000000; stroke-opacity:1; 
stroke-linecap:round; stroke-linejoin:round;">
<text x="66500.000000" y="24330.905512"
textLength="1488.582677" font-size="666.653543" lengthAdjust="spacingAndGlyphs"
text-anchor="middle" opacity="0">VCC</text>
<g class="stroked-text"><desc>VCC</desc>
<path d="M65833 23807
L66000 24307
L66166 23807
" />
<path d="M66619 24259
L66595 24283
L66523 24307
L66476 24307
L66404 24283
L66357 24235
L66333 24188
L66309 24092
L66309 24021
L66333 23926
L66357 23878
L66404 23830
L66476 23807
L66523 23807
L66595 23830
L66619 23854
" />
<path d="M67119 24259
L67095 24283
L67023 24307
L66976 24307
L66904 24283
L66857 24235
L66833 24188
L66809 24092
L66809 24021
L66833 23926
L66857 23878
L66904 23830
L66976 23807
L67023 23807
L67095 23830
L67119 23854
" />
</g></g>
</g>
<g style="fill:#008484; fill-opacity:0.0; 
stroke:#008484; stroke-width:60.000000; stroke-opacity:1; 
stroke-linecap:round; stroke-linejoin:round;">
<g >
</g>
<g style="fill:#840000; fill-opacity:0.0; 
stroke:#840000; stroke-width:60.000000; stroke-opacity:1; 
stroke-linecap:round; stroke-linejoin:round;">
<path style="fill:#840000; fill-opacity:0.0; 
stroke:#840000; stroke-width:60.000000; stroke-opacity:1; 
stroke-linecap:round; stroke-linejoin:round;fill:none"
d="M 58250.000000,38750.000000
58250.000000,39250.000000
58750.000000,39250.000000
58250.000000,39750.000000
57750.000000,39250.000000
58250.000000,39250.000000
" /> 
</g>
<g style="fill:#008484; fill-opacity:0.0; 
stroke:#008484; stroke-width:60.000000; stroke-opacity:1; 
stroke-linecap:round; stroke-linejoin:round;">
<text x="58250.000000" y="40796.259843"
textLength="1583.818898" font-size="666.653543" lengthAdjust="spacingAndGlyphs"
text-anchor="middle" opacity="0">GND</text>
<g class="stroked-text"><desc>GND</desc>
<path d="M57869 40296
L57821 40272
L57750 40272
L57678 40296
L57630 40343
L57607 40391
L57583 40486
L57583 40558
L57607 40653
L57630 40700
L57678 40748
L57750 40772
L57797 40772
L57869 40748
L57892 40724
L57892 40558
L57797 40558
" />
<path d="M58107 40772
L58107 40272
L58392 40772
L58392 40272
" />
<path d="M58630 40772
L58630 40272
L58750 40272
L58821 40296
L58869 40343
L58892 40391
L58916 40486
L58916 40558
L58892 40653
L58869 40700
L58821 40748
L58750 40772
L58630 40772
" />
</g></g>
</g>
<g style="fill:#008484; fill-opacity:0.0; 
stroke:#008484; stroke-width:60.000000; stroke-opacity:1; 
stroke-linecap:round; stroke-linejoin:round;">
<g >
</g>
<g style="fill:#840000; fill-opacity:0.0; 
stroke:#840000; stroke-width:60.000000; stroke-opacity:1; 
stroke-linecap:round; stroke-linejoin:round;">
<rect x="49750.000000" y="30250.000000" width="3000.000000" height="4000.000000" rx="0.000000" />
<path d="M50750 34250
L50750 35250
" />
</g>
<g style="fill:#008484; fill-opacity:0.0; 
stroke:#008484; stroke-width:60.000000; stroke-opacity:1; 
stroke-linecap:round; stroke-linejoin:round;">
<g transform="rotate(-90.000000 50750.000000 34050.000000)">
<text x="50750.000000" y="34300.000000"
textLength="1583.818898" font-size="666.653543" lengthAdjust="spacingAndGlyphs"
text-anchor="start" opacity="0">GND</text>
</g>
<g class="stroked-text"><desc>GND</desc>
<path d="M50500 33639
L50476 33686
L50476 33758
L50500 33829
L50547 33877
L50595 33900
L50690 33924
L50761 33924
L50857 33900
L50904 33877
L50952 33829
L50976 33758
L50976 33710
L50952 33639
L50928 33615
L50761 33615
L50761 33710
" />
<path d="M50976 33400
L50476 33400
L50976 33115
L50476 33115
" />
<path d="M50976 32877
L50476 32877
L50476 32758
L50500 32686
L50547 32639
L50595 32615
L50690 32591
L50761 32591
L50857 32615
L50904 32639
L50952 32686
L50976 32758
L50976 32877
" />
</g></g>
<g style="fill:#840000; fill-opacity:0.0; 
stroke:#840000; stroke-width:60.000000; stroke-opacity:1; 
stroke-linecap:round; stroke-linejoin:round;">
<g transform="rotate(-90.000000 50650.000000 34750.000000)">
<text x="50650.000000" y="34750.000000"
textLength="536.181102" font-size="666.653543" lengthAdjust="spacingAndGlyphs"
text-anchor="middle" opacity="0">3</text>
</g>
<g class="stroked-text"><desc>3</desc>
<path d="M50126 34916
L50126 34607
L50316 34773
L50316 34702
L50340 34654
L50364 34630
L50411 34607
L50530 34607
L50578 34630
L50602 34654
L50626 34702
L50626 34845
L50602 34892
L50578 34916
" />
</g><path d="M51750 34250
L51750 35250
" />
</g>
<g style="fill:#008484; fill-opacity:0.0; 
stroke:#008484; stroke-width:60.000000; stroke-opacity:1; 
stroke-linecap:round; stroke-linejoin:round;">
<g transform="rotate(-90.000000 51750.000000 34050.000000)">
<text x="51750.000000" y="34300.000000"
textLength="1583.818898" font-size="666.653543" lengthAdjust="spacingAndGlyphs"
text-anchor="start" opacity="0">GND</text>
</g>
<g class="stroked-text"><desc>GND</desc>
<path d="M51500 33639
L51476 33686
L51476 33758
L51500 33829
L51547 33877
L51595 33900
L51690 33924
L51761 33924
L51857 33900
L51904 33877
L51952 33829
L51976 33758
L51976 33710
L51952 33639
L51928 33615
L51761 33615
L51761 33710
" />
<path d="M51976 33400
L51476 33400
L51976 33115
L51476 33115
" />
<path d="M51976 32877
L51476 32877
L51476 32758
L51500 32686
L51547 32639
L51595 32615
L51690 32591
L51761 32591
L51857 32615
L51904 32639
L51952 32686
L51976 32758
L51976 32877
" />
</g></g>
<g style="fill:#840000; fill-opacity:0.0; 
stroke:#840000; stroke-width:60.000000; stroke-opacity:1; 
stroke-linecap:round; stroke-linejoin:round;">
<g transform="rotate(-90.000000 51650.000000 34750.000000)">
<text x="51650.000000" y="34750.000000"
textLength="536.181102" font-size="666.653543" lengthAdjust="spacingAndGlyphs"
text-anchor="middle" opacity="0">4</text>
</g>
<g class="stroked-text"><desc>4</desc>
<path d="M51292 34654
L51626 34654
" />
<path d="M51102 34773
L51459 34892
L51459 34583
" />
</g><path d="M49750 32000
L48750 32000
" />
</g>
<g style="fill:#008484; fill-opacity:0.0; 
stroke:#008484; stroke-width:60.000000; stroke-opacity:1; 
stroke-linecap:round; stroke-linejoin:round;">
<text x="49950.000000" y="32250.000000"
textLength="821.889764" font-size="666.653543" lengthAdjust="spacingAndGlyphs"
text-anchor="start" opacity="0">IN</text>
<g class="stroked-text"><desc>IN</desc>
<path d="M50099 32226
L50099 31726
" />
<path d="M50337 32226
L50337 31726
L50622 32226
L50622 31726
" />
</g></g>
<g style="fill:#840000; fill-opacity:0.0; 
stroke:#840000; stroke-width:60.000000; stroke-opacity:1; 
stroke-linecap:round; stroke-linejoin:round;">
<text x="49250.000000" y="31900.000000"
textLength="536.181102" font-size="666.653543" lengthAdjust="spacingAndGlyphs"
text-anchor="middle" opacity="0">1</text>
<g class="stroked-text"><desc>1</desc>
<path d="M49392 31876
L49107 31876
" />
<path d="M49250 31876
L49250 31376
L49202 31447
L49154 31495
L49107 31519
" />
</g><path d="M52750 32000
L53750 32000
" />
</g>
<g style="fill:#008484; fill-opacity:0.0; 
stroke:#008484; stroke-width:60.000000; stroke-opacity:1; 
stroke-linecap:round; stroke-linejoin:round;">
<text x="52550.000000" y="32250.000000"
textLength="1488.582677" font-size="666.653543" lengthAdjust="spacingAndGlyphs"
text-anchor="end" opacity="0">OUT</text>
<g class="stroked-text"><desc>OUT</desc>
<path d="M51305 31726
L51400 31726
L51448 31750
L51496 31797
L51520 31892
L51520 32059
L51496 32154
L51448 32202
L51400 32226
L51305 32226
L51258 32202
L51210 32154
L51186 32059
L51186 31892
L51210 31797
L51258 31750
L51305 31726
" />
<path d="M51734 31726
L51734 32130
L51758 32178
L51781 32202
L51829 32226
L51924 32226
L51972 32202
L51996 32178
L52020 32130
L52020 31726
" />
<path d="M52186 31726
L52472 31726
" />
<path d="M52329 32226
L52329 31726
" />
</g></g>
<g style="fill:#840000; fill-opacity:0.0; 
stroke:#840000; stroke-width:60.000000; stroke-opacity:1; 
stroke-linecap:round; stroke-linejoin:round;">
<text x="53250.000000" y="31900.000000"
textLength="536.181102" font-size="666.653543" lengthAdjust="spacingAndGlyphs"
text-anchor="middle" opacity="0">2</text>
<g class="stroked-text"><desc>2</desc>
<path d="M53107 31423
L53130 31400
L53178 31376
L53297 31376
L53345 31400
L53369 31423
L53392 31471
L53392 31519
L53369 31590
L53083 31876
L53392 31876
" />
</g></g>
<g style="fill:#008484; fill-opacity:0.0; 
stroke:#008484; stroke-width:60.000000; stroke-opacity:1; 
stroke-linecap:round; stroke-linejoin:round;">
<text x="51150.000000" y="29108.385827"
textLength="2012.362205" font-size="666.653543" lengthAdjust="spacingAndGlyphs"
text-anchor="middle" opacity="0">U502</text>
<g class="stroked-text"><desc>U502</desc>
<path d="M50292 28584
L50292 28989
L50316 29036
L50340 29060
L50388 29084
L50483 29084
L50530 29060
L50554 29036
L50578 28989
L50578 28584
" />
<path d="M51054 28584
L50816 28584
L50792 28822
L50816 28798
L50864 28775
L50983 28775
L51030 28798
L51054 28822
L51078 28870
L51078 28989
L51054 29036
L51030 29060
L50983 29084
L50864 29084
L50816 29060
L50792 29036
" />
<path d="M51388 28584
L51435 28584
L51483 28608
L51507 28632
L51530 28679
L51554 28775
L51554 28894
L51530 28989
L51507 29036
L51483 29060
L51435 29084
L51388 29084
L51340 29060
L51316 29036
L51292 28989
L51269 28894
L51269 28775
L51292 28679
L51316 28632
L51340 28608
L51388 28584
" />
<path d="M51745 28632
L51769 28608
L51816 28584
L51935 28584
L51983 28608
L52007 28632
L52030 28679
L52030 28727
L52007 28798
L51721 29084
L52030 29084
" />
</g><text x="51250.000000" y="30000.000000"
textLength="3845.708661" font-size="666.653543" lengthAdjust="spacingAndGlyphs"
text-anchor="middle" opacity="0">LTC455GW</text>
<g class="stroked-text"><desc>LTC455GW</desc>
<path d="M49714 29976
L49476 29976
L49476 29476
" />
<path d="M49809 29476
L50095 29476
" />
<path d="M49952 29976
L49952 29476
" />
<path d="M50547 29928
L50523 29952
L50452 29976
L50404 29976
L50333 29952
L50285 29904
L50261 29857
L50238 29761
L50238 29690
L50261 29595
L50285 29547
L50333 29500
L50404 29476
L50452 29476
L50523 29500
L50547 29523
" />
<path d="M50976 29642
L50976 29976
" />
<path d="M50857 29452
L50738 29809
L51047 29809
" />
<path d="M51476 29476
L51238 29476
L51214 29714
L51238 29690
L51285 29666
L51404 29666
L51452 29690
L51476 29714
L51500 29761
L51500 29880
L51476 29928
L51452 29952
L51404 29976
L51285 29976
L51238 29952
L51214 29928
" />
<path d="M51952 29476
L51714 29476
L51690 29714
L51714 29690
L51761 29666
L51880 29666
L51928 29690
L51952 29714
L51976 29761
L51976 29880
L51952 29928
L51928 29952
L51880 29976
L51761 29976
L51714 29952
L51690 29928
" />
<path d="M52452 29500
L52404 29476
L52333 29476
L52261 29500
L52214 29547
L52190 29595
L52166 29690
L52166 29761
L52190 29857
L52214 29904
L52261 29952
L52333 29976
L52380 29976
L52452 29952
L52476 29928
L52476 29761
L52380 29761
" />
<path d="M52642 29476
L52761 29976
L52857 29619
L52952 29976
L53071 29476
" />
</g></g>
</g>
<g style="fill:#008484; fill-opacity:0.0; 
stroke:#008484; stroke-width:60.000000; stroke-opacity:1; 
stroke-linecap:round; stroke-linejoin:round;">
<g >
</g>
<g style="fill:#840000; fill-opacity:0.0; 
stroke:#840000; stroke-width:60.000000; stroke-opacity:1; 
stroke-linecap:round; stroke-linejoin:round;">
<path style="fill:#840000; fill-opacity:0.0; 
stroke:#840000; stroke-width:60.000000; stroke-opacity:1; 
stroke-linecap:round; stroke-linejoin:round;fill:none"
d="M 44500.000000,38750.000000
44500.000000,39250.000000
45000.000000,39250.000000
44500.000000,39750.000000
44000.000000,39250.000000
44500.000000,39250.000000
" /> 
</g>
<g style="fill:#008484; fill-opacity:0.0; 
stroke:#008484; stroke-width:60.000000; stroke-opacity:1; 
stroke-linecap:round; stroke-linejoin:round;">
<text x="44500.000000" y="40796.259843"
textLength="1583.818898" font-size="666.653543" lengthAdjust="spacingAndGlyphs"
text-anchor="middle" opacity="0">GND</text>
<g class="stroked-text"><desc>GND</desc>
<path d="M44119 40296
L44071 40272
L44000 40272
L43928 40296
L43880 40343
L43857 40391
L43833 40486
L43833 40558
L43857 40653
L43880 40700
L43928 40748
L44000 40772
L44047 40772
L44119 40748
L44142 40724
L44142 40558
L44047 40558
" />
<path d="M44357 40772
L44357 40272
L44642 40772
L44642 40272
" />
<path d="M44880 40772
L44880 40272
L45000 40272
L45071 40296
L45119 40343
L45142 40391
L45166 40486
L45166 40558
L45142 40653
L45119 40700
L45071 40748
L45000 40772
L44880 40772
" />
</g></g>
</g>
<g style="fill:#008484; fill-opacity:0.0; 
stroke:#008484; stroke-width:60.000000; stroke-opacity:1; 
stroke-linecap:round; stroke-linejoin:round;">
<g >
</g>
<g style="fill:#840000; fill-opacity:0.0; 
stroke:#840000; stroke-width:60.000000; stroke-opacity:1; 
stroke-linecap:round; stroke-linejoin:round;">
<path style="fill:#840000; fill-opacity:0.0; 
stroke:#840000; stroke-width:60.000000; stroke-opacity:1; 
stroke-linecap:round; stroke-linejoin:round;fill:none"
d="M 51250.000000,36750.000000
51250.000000,37250.000000
51750.000000,37250.000000
51250.000000,37750.000000
50750.000000,37250.000000
51250.000000,37250.000000
" /> 
</g>
<g style="fill:#008484; fill-opacity:0.0; 
stroke:#008484; stroke-width:60.000000; stroke-opacity:1; 
stroke-linecap:round; stroke-linejoin:round;">
<text x="51250.000000" y="38796.259843"
textLength="1583.818898" font-size="666.653543" lengthAdjust="spacingAndGlyphs"
text-anchor="middle" opacity="0">GND</text>
<g class="stroked-text"><desc>GND</desc>
<path d="M50869 38296
L50821 38272
L50750 38272
L50678 38296
L50630 38343
L50607 38391
L50583 38486
L50583 38558
L50607 38653
L50630 38700
L50678 38748
L50750 38772
L50797 38772
L50869 38748
L50892 38724
L50892 38558
L50797 38558
" />
<path d="M51107 38772
L51107 38272
L51392 38772
L51392 38272
" />
<path d="M51630 38772
L51630 38272
L51750 38272
L51821 38296
L51869 38343
L51892 38391
L51916 38486
L51916 38558
L51892 38653
L51869 38700
L51821 38748
L51750 38772
L51630 38772
" />
</g></g>
</g>
<g style="fill:#008484; fill-opacity:0.0; 
stroke:#008484; stroke-width:60.000000; stroke-opacity:1; 
stroke-linecap:round; stroke-linejoin:round;">
<g >
</g>
<g style="fill:#840000; fill-opacity:0.0; 
stroke:#840000; stroke-width:60.000000; stroke-opacity:1; 
stroke-linecap:round; stroke-linejoin:round;">
</g>
<g style="fill:#840000; fill-opacity:0.0; 
stroke:#840000; stroke-width:200.000000; stroke-opacity:1; 
stroke-linecap:round; stroke-linejoin:round;">
<path style="fill:#840000; fill-opacity:0.0; 
stroke:#840000; stroke-width:200.000000; stroke-opacity:1; 
stroke-linecap:round; stroke-linejoin:round;fill:none"
d="M 65700.000000,28800.000000
67300.000000,28800.000000
" /> 
<path style="fill:#840000; fill-opacity:0.0; 
stroke:#840000; stroke-width:200.000000; stroke-opacity:1; 
stroke-linecap:round; stroke-linejoin:round;fill:none"
d="M 65700.000000,28200.000000
67300.000000,28200.000000
" /> 
</g>
<g style="fill:#840000; fill-opacity:0.0; 
stroke:#840000; stroke-width:60.000000; stroke-opacity:1; 
stroke-linecap:round; stroke-linejoin:round;">
<path d="M66500 28100
L66500 27000
" />
<path d="M66500 28900
L66500 30000
" />
</g>
<g style="fill:#008484; fill-opacity:0.0; 
stroke:#008484; stroke-width:60.000000; stroke-opacity:1; 
stroke-linecap:round; stroke-linejoin:round;">
<text x="68645.551181" y="28392.322835"
textLength="1988.582677" font-size="666.653543" lengthAdjust="spacingAndGlyphs"
text-anchor="middle" opacity="0">C502</text>
<g class="stroked-text"><desc>C502</desc>
<path d="M68086 28320
L68062 28344
L67990 28368
L67943 28368
L67871 28344
L67824 28297
L67800 28249
L67776 28154
L67776 28082
L67800 27987
L67824 27939
L67871 27892
L67943 27868
L67990 27868
L68062 27892
L68086 27916
" />
<path d="M68538 27868
L68300 27868
L68276 28106
L68300 28082
L68347 28058
L68466 28058
L68514 28082
L68538 28106
L68562 28154
L68562 28273
L68538 28320
L68514 28344
L68466 28368
L68347 28368
L68300 28344
L68276 28320
" />
<path d="M68871 27868
L68919 27868
L68966 27892
L68990 27916
L69014 27963
L69038 28058
L69038 28178
L69014 28273
L68990 28320
L68966 28344
L68919 28368
L68871 28368
L68824 28344
L68800 28320
L68776 28273
L68752 28178
L68752 28058
L68776 27963
L68800 27916
L68824 27892
L68871 27868
" />
<path d="M69228 27916
L69252 27892
L69300 27868
L69419 27868
L69466 27892
L69490 27916
L69514 27963
L69514 28011
L69490 28082
L69205 28368
L69514 28368
" />
</g><text x="68383.622047" y="29484.881890"
textLength="1464.763780" font-size="666.653543" lengthAdjust="spacingAndGlyphs"
text-anchor="middle" opacity="0">22n</text>
<g class="stroked-text"><desc>22n</desc>
<path d="M67776 29008
L67800 28984
L67847 28961
L67966 28961
L68014 28984
L68038 29008
L68062 29056
L68062 29103
L68038 29175
L67752 29461
L68062 29461
" />
<path d="M68252 29008
L68276 28984
L68324 28961
L68443 28961
L68490 28984
L68514 29008
L68538 29056
L68538 29103
L68514 29175
L68228 29461
L68538 29461
" />
<path d="M68752 29127
L68752 29461
" />
<path d="M68752 29175
L68776 29151
L68824 29127
L68895 29127
L68943 29151
L68966 29199
L68966 29461
" />
</g></g>
</g>
<g style="fill:#008484; fill-opacity:0.0; 
stroke:#008484; stroke-width:60.000000; stroke-opacity:1; 
stroke-linecap:round; stroke-linejoin:round;">
<g >
</g>
<g style="fill:#840000; fill-opacity:0.0; 
stroke:#840000; stroke-width:60.000000; stroke-opacity:1; 
stroke-linecap:round; stroke-linejoin:round;">
<path style="fill:#840000; fill-opacity:0.0; 
stroke:#840000; stroke-width:60.000000; stroke-opacity:1; 
stroke-linecap:round; stroke-linejoin:round;fill:none"
d="M 64500.000000,38500.000000
64500.000000,39000.000000
65000.000000,39000.000000
64500.000000,39500.000000
64000.000000,39000.000000
64500.000000,39000.000000
" /> 
</g>
<g style="fill:#008484; fill-opacity:0.0; 
stroke:#008484; stroke-width:60.000000; stroke-opacity:1; 
stroke-linecap:round; stroke-linejoin:round;">
<text x="64500.000000" y="40546.259843"
textLength="1583.818898" font-size="666.653543" lengthAdjust="spacingAndGlyphs"
text-anchor="middle" opacity="0">GND</text>
<g class="stroked-text"><desc>GND</desc>
<path d="M64119 40046
L64071 40022
L64000 40022
L63928 40046
L63880 40093
L63857 40141
L63833 40236
L63833 40308
L63857 40403
L63880 40450
L63928 40498
L64000 40522
L64047 40522
L64119 40498
L64142 40474
L64142 40308
L64047 40308
" />
<path d="M64357 40522
L64357 40022
L64642 40522
L64642 40022
" />
<path d="M64880 40522
L64880 40022
L65000 40022
L65071 40046
L65119 40093
L65142 40141
L65166 40236
L65166 40308
L65142 40403
L65119 40450
L65071 40498
L65000 40522
L64880 40522
" />
</g></g>
</g>
<g style="fill:#008484; fill-opacity:0.0; 
stroke:#008484; stroke-width:60.000000; stroke-opacity:1; 
stroke-linecap:round; stroke-linejoin:round;">
<g >
</g>
<g style="fill:#840000; fill-opacity:0.0; 
stroke:#840000; stroke-width:60.000000; stroke-opacity:1; 
stroke-linecap:round; stroke-linejoin:round;">
<path d="M56999.803166 35989.989895 A507.559055 507.559055 0.0 0 0 57499.966399 35500.193871" />
<path d="M56999.803166 34989.989895 A507.559055 507.559055 0.0 0 0 57499.966399 34500.193871" />
<path d="M56999.803166 33989.989895 A507.559055 507.559055 0.0 0 0 57499.966399 33500.193871" />
<path d="M56999.803166 32989.989895 A507.559055 507.559055 0.0 0 0 57499.966399 32500.193871" />
<path d="M57500.000000 35500.039370 A500.039370 500.039370 0.0 0 0 56999.960630 35000.000000" />
<path d="M57500.000000 34500.039370 A500.039370 500.039370 0.0 0 0 56999.960630 34000.000000" />
<path d="M57500.000000 33500.039370 A500.039370 500.039370 0.0 0 0 56999.960630 33000.000000" />
<path d="M57500.000000 32500.039370 A500.039370 500.039370 0.0 0 0 56999.960630 32000.000000" />
<path style="fill:#840000; fill-opacity:0.0; 
stroke:#840000; stroke-width:60.000000; stroke-opacity:1; 
stroke-linecap:round; stroke-linejoin:round;fill:none"
d="M 57750.000000,32000.000000
57750.000000,36000.000000
" /> 
<path style="fill:#840000; fill-opacity:0.0; 
stroke:#840000; stroke-width:60.000000; stroke-opacity:1; 
stroke-linecap:round; stroke-linejoin:round;fill:none"
d="M 58250.000000,36000.000000
58250.000000,32000.000000
" /> 
<path d="M58510.000000 34500.039370 A489.960630 489.960630 0.0 0 0 58999.960630 34990.000000" />
<path d="M58510.000000 33500.039370 A489.960630 489.960630 0.0 0 0 58999.960630 33990.000000" />
<path d="M58510.000000 32500.039370 A489.960630 489.960630 0.0 0 0 58999.960630 32990.000000" />
<path d="M58520.000000 35500.039370 A489.960630 489.960630 0.0 0 0 59009.960630 35990.000000" />
<path d="M58999.859356 34000.007748 A483.385827 483.385827 0.0 0 0 58510.018875 34500.216379" />
<path d="M58999.859356 33000.007748 A483.385827 483.385827 0.0 0 0 58510.018875 33500.216379" />
<path d="M58999.859356 32000.007748 A483.385827 483.385827 0.0 0 0 58510.018875 32500.216379" />
<path d="M59009.859356 35000.007748 A483.385827 483.385827 0.0 0 0 58520.018875 35500.216379" />
<path d="M57000 32000
L54000 32000
" />
<text x="55500.000000" y="31900.000000"
textLength="536.181102" font-size="666.653543" lengthAdjust="spacingAndGlyphs"
text-anchor="middle" opacity="0">1</text>
<g class="stroked-text"><desc>1</desc>
<path d="M55642 31876
L55357 31876
" />
<path d="M55500 31876
L55500 31376
L55452 31447
L55404 31495
L55357 31519
" />
</g><path d="M57000 36000
L54000 36000
" />
<text x="55500.000000" y="35900.000000"
textLength="536.181102" font-size="666.653543" lengthAdjust="spacingAndGlyphs"
text-anchor="middle" opacity="0">2</text>
<g class="stroked-text"><desc>2</desc>
<path d="M55357 35423
L55380 35400
L55428 35376
L55547 35376
L55595 35400
L55619 35423
L55642 35471
L55642 35519
L55619 35590
L55333 35876
L55642 35876
" />
</g><path d="M59000 36000
L62000 36000
" />
<text x="60500.000000" y="35900.000000"
textLength="536.181102" font-size="666.653543" lengthAdjust="spacingAndGlyphs"
text-anchor="middle" opacity="0">3</text>
<g class="stroked-text"><desc>3</desc>
<path d="M60333 35376
L60642 35376
L60476 35566
L60547 35566
L60595 35590
L60619 35614
L60642 35661
L60642 35780
L60619 35828
L60595 35852
L60547 35876
L60404 35876
L60357 35852
L60333 35828
" />
</g><path d="M59000 32000
L62000 32000
" />
<text x="60500.000000" y="31900.000000"
textLength="536.181102" font-size="666.653543" lengthAdjust="spacingAndGlyphs"
text-anchor="middle" opacity="0">4</text>
<g class="stroked-text"><desc>4</desc>
<path d="M60595 31542
L60595 31876
" />
<path d="M60476 31352
L60357 31709
L60666 31709
" />
</g></g>
<g style="fill:#008484; fill-opacity:0.0; 
stroke:#008484; stroke-width:60.000000; stroke-opacity:1; 
stroke-linecap:round; stroke-linejoin:round;">
<text x="58000.000000" y="30500.000000"
textLength="1869.527559" font-size="666.653543" lengthAdjust="spacingAndGlyphs"
text-anchor="middle" opacity="0">T502</text>
<g class="stroked-text"><desc>T502</desc>
<path d="M57142 29976
L57428 29976
" />
<path d="M57285 30476
L57285 29976
" />
<path d="M57833 29976
L57595 29976
L57571 30214
L57595 30190
L57642 30166
L57761 30166
L57809 30190
L57833 30214
L57857 30261
L57857 30380
L57833 30428
L57809 30452
L57761 30476
L57642 30476
L57595 30452
L57571 30428
" />
<path d="M58166 29976
L58214 29976
L58261 30000
L58285 30023
L58309 30071
L58333 30166
L58333 30285
L58309 30380
L58285 30428
L58261 30452
L58214 30476
L58166 30476
L58119 30452
L58095 30428
L58071 30380
L58047 30285
L58047 30166
L58071 30071
L58095 30023
L58119 30000
L58166 29976
" />
<path d="M58523 30023
L58547 30000
L58595 29976
L58714 29976
L58761 30000
L58785 30023
L58809 30071
L58809 30119
L58785 30190
L58500 30476
L58809 30476
" />
</g><text x="58250.000000" y="31250.000000"
textLength="6274.291339" font-size="666.653543" lengthAdjust="spacingAndGlyphs"
text-anchor="middle" opacity="0">11:2 on type 43</text>
<g class="stroked-text"><desc>11:2 on type 43</desc>
<path d="M55523 31226
L55238 31226
" />
<path d="M55380 31226
L55380 30726
L55333 30797
L55285 30845
L55238 30869
" />
<path d="M56000 31226
L55714 31226
" />
<path d="M55857 31226
L55857 30726
L55809 30797
L55761 30845
L55714 30869
" />
<path d="M56214 31178
L56238 31202
L56214 31226
L56190 31202
L56214 31178
L56214 31226
" />
<path d="M56214 30916
L56238 30940
L56214 30964
L56190 30940
L56214 30916
L56214 30964
" />
<path d="M56428 30773
L56452 30750
L56500 30726
L56619 30726
L56666 30750
L56690 30773
L56714 30821
L56714 30869
L56690 30940
L56404 31226
L56714 31226
" />
<path d="M57380 31226
L57333 31202
L57309 31178
L57285 31130
L57285 30988
L57309 30940
L57333 30916
L57380 30892
L57452 30892
L57500 30916
L57523 30940
L57547 30988
L57547 31130
L57523 31178
L57500 31202
L57452 31226
L57380 31226
" />
<path d="M57761 30892
L57761 31226
" />
<path d="M57761 30940
L57785 30916
L57833 30892
L57904 30892
L57952 30916
L57976 30964
L57976 31226
" />
<path d="M58523 30892
L58714 30892
" />
<path d="M58595 30726
L58595 31154
L58619 31202
L58666 31226
L58714 31226
" />
<path d="M58833 30892
L58952 31226
" />
<path d="M59071 30892
L58952 31226
L58904 31345
L58880 31369
L58833 31392
" />
<path d="M59261 30892
L59261 31392
" />
<path d="M59261 30916
L59309 30892
L59404 30892
L59452 30916
L59476 30940
L59500 30988
L59500 31130
L59476 31178
L59452 31202
L59404 31226
L59309 31226
L59261 31202
" />
<path d="M59904 31202
L59857 31226
L59761 31226
L59714 31202
L59690 31154
L59690 30964
L59714 30916
L59761 30892
L59857 30892
L59904 30916
L59928 30964
L59928 31011
L59690 31059
" />
<path d="M60738 30892
L60738 31226
" />
<path d="M60619 30702
L60500 31059
L60809 31059
" />
<path d="M60952 30726
L61261 30726
L61095 30916
L61166 30916
L61214 30940
L61238 30964
L61261 31011
L61261 31130
L61238 31178
L61214 31202
L61166 31226
L61023 31226
L60976 31202
L60952 31178
" />
</g></g>
</g>
<g style="fill:#008484; fill-opacity:0.0; 
stroke:#008484; stroke-width:60.000000; stroke-opacity:1; 
stroke-linecap:round; stroke-linejoin:round;">
<g >
</g>
<g style="fill:#840000; fill-opacity:0.0; 
stroke:#840000; stroke-width:60.000000; stroke-opacity:1; 
stroke-linecap:round; stroke-linejoin:round;">
<path style="fill:#840000; fill-opacity:0.0; 
stroke:#840000; stroke-width:60.000000; stroke-opacity:1; 
stroke-linecap:round; stroke-linejoin:round;fill:none"
d="M 38200.000000,22750.000000
38500.000000,22250.000000
" /> 
<path style="fill:#840000; fill-opacity:0.0; 
stroke:#840000; stroke-width:60.000000; stroke-opacity:1; 
stroke-linecap:round; stroke-linejoin:round;fill:none"
d="M 38500.000000,23250.000000
38500.000000,22250.000000
" /> 
<path style="fill:#840000; fill-opacity:0.0; 
stroke:#840000; stroke-width:60.000000; stroke-opacity:1; 
stroke-linecap:round; stroke-linejoin:round;fill:none"
d="M 38500.000000,22250.000000
38800.000000,22750.000000
" /> 
</g>
<g style="fill:#008484; fill-opacity:0.0; 
stroke:#008484; stroke-width:60.000000; stroke-opacity:1; 
stroke-linecap:round; stroke-linejoin:round;">
<text x="38500.000000" y="22080.905512"
textLength="1488.582677" font-size="666.653543" lengthAdjust="spacingAndGlyphs"
text-anchor="middle" opacity="0">VCC</text>
<g class="stroked-text"><desc>VCC</desc>
<path d="M37833 21557
L38000 22057
L38166 21557
" />
<path d="M38619 22009
L38595 22033
L38523 22057
L38476 22057
L38404 22033
L38357 21985
L38333 21938
L38309 21842
L38309 21771
L38333 21676
L38357 21628
L38404 21580
L38476 21557
L38523 21557
L38595 21580
L38619 21604
" />
<path d="M39119 22009
L39095 22033
L39023 22057
L38976 22057
L38904 22033
L38857 21985
L38833 21938
L38809 21842
L38809 21771
L38833 21676
L38857 21628
L38904 21580
L38976 21557
L39023 21557
L39095 21580
L39119 21604
" />
</g></g>
</g>
<g style="fill:#008484; fill-opacity:0.0; 
stroke:#008484; stroke-width:60.000000; stroke-opacity:1; 
stroke-linecap:round; stroke-linejoin:round;">
<g >
</g>
<g style="fill:#840000; fill-opacity:0.0; 
stroke:#840000; stroke-width:60.000000; stroke-opacity:1; 
stroke-linecap:round; stroke-linejoin:round;">
<path style="fill:#840000; fill-opacity:0.0; 
stroke:#840000; stroke-width:60.000000; stroke-opacity:1; 
stroke-linecap:round; stroke-linejoin:round;fill:none"
d="M 66500.000000,30500.000000
66500.000000,31000.000000
67000.000000,31000.000000
66500.000000,31500.000000
66000.000000,31000.000000
66500.000000,31000.000000
" /> 
</g>
<g style="fill:#008484; fill-opacity:0.0; 
stroke:#008484; stroke-width:60.000000; stroke-opacity:1; 
stroke-linecap:round; stroke-linejoin:round;">
<text x="66500.000000" y="32546.259843"
textLength="1583.818898" font-size="666.653543" lengthAdjust="spacingAndGlyphs"
text-anchor="middle" opacity="0">GND</text>
<g class="stroked-text"><desc>GND</desc>
<path d="M66119 32046
L66071 32022
L66000 32022
L65928 32046
L65880 32093
L65857 32141
L65833 32236
L65833 32308
L65857 32403
L65880 32450
L65928 32498
L66000 32522
L66047 32522
L66119 32498
L66142 32474
L66142 32308
L66047 32308
" />
<path d="M66357 32522
L66357 32022
L66642 32522
L66642 32022
" />
<path d="M66880 32522
L66880 32022
L67000 32022
L67071 32046
L67119 32093
L67142 32141
L67166 32236
L67166 32308
L67142 32403
L67119 32450
L67071 32498
L67000 32522
L66880 32522
" />
</g></g>
</g>
<g style="fill:#008484; fill-opacity:0.0; 
stroke:#008484; stroke-width:60.000000; stroke-opacity:1; 
stroke-linecap:round; stroke-linejoin:round;">
<g >
</g>
<g style="fill:#840000; fill-opacity:0.0; 
stroke:#840000; stroke-width:60.000000; stroke-opacity:1; 
stroke-linecap:round; stroke-linejoin:round;">
</g>
<g style="fill:#FFFFC2; fill-opacity:0.0; 
stroke:#FFFFC2; stroke-width:60.000000; stroke-opacity:1; 
stroke-linecap:round; stroke-linejoin:round;">
</g>
<g style="fill:#FFFFC2; fill-opacity:0.6; 
stroke:#FFFFC2; stroke-width:0.039370; stroke-opacity:1; 
stroke-linecap:round; stroke-linejoin:round;">
<path style="fill:#FFFFC2; fill-opacity:0.6; 
stroke:#FFFFC2; stroke-width:0.039370; stroke-opacity:1; 
stroke-linecap:round; stroke-linejoin:round;fill-rule:evenodd;"
d="M 67500.000000,34000.000000
63500.000000,32000.000000
63500.000000,36000.000000
Z" /> 
</g>
<g style="fill:#840000; fill-opacity:0.6; 
stroke:#840000; stroke-width:0.039370; stroke-opacity:1; 
stroke-linecap:round; stroke-linejoin:round;">
</g>
<g style="fill:#840000; fill-opacity:0.0; 
stroke:#840000; stroke-width:100.000000; stroke-opacity:1; 
stroke-linecap:round; stroke-linejoin:round;">
<path style="fill:#840000; fill-opacity:0.0; 
stroke:#840000; stroke-width:100.000000; stroke-opacity:1; 
stroke-linecap:round; stroke-linejoin:round;fill:none"
d="M 67500.000000,34000.000000
63500.000000,32000.000000
63500.000000,36000.000000
Z" /> 
<path style="fill:#840000; fill-opacity:0.0; 
stroke:#840000; stroke-width:100.000000; stroke-opacity:1; 
stroke-linecap:round; stroke-linejoin:round;fill:none"
d="M 67500.000000,34000.000000
63500.000000,32000.000000
63500.000000,36000.000000
Z" /> 
</g>
<g style="fill:#840000; fill-opacity:0.0; 
stroke:#840000; stroke-width:60.000000; stroke-opacity:1; 
stroke-linecap:round; stroke-linejoin:round;">
<path d="M64500 32500
L64500 31000
" />
</g>
<g style="fill:#008484; fill-opacity:0.0; 
stroke:#008484; stroke-width:60.000000; stroke-opacity:1; 
stroke-linecap:round; stroke-linejoin:round;">
<g transform="rotate(-90.000000 64500.000000 32700.000000)">
<text x="64500.000000" y="32950.000000"
textLength="1345.708661" font-size="666.653543" lengthAdjust="spacingAndGlyphs"
text-anchor="end" opacity="0">Vcc</text>
</g>
<g class="stroked-text"><desc>Vcc</desc>
<path d="M64226 33968
L64726 33801
L64226 33634
" />
<path d="M64702 33253
L64726 33301
L64726 33396
L64702 33444
L64678 33468
L64630 33491
L64488 33491
L64440 33468
L64416 33444
L64392 33396
L64392 33301
L64416 33253
" />
<path d="M64702 32825
L64726 32872
L64726 32968
L64702 33015
L64678 33039
L64630 33063
L64488 33063
L64440 33039
L64416 33015
L64392 32968
L64392 32872
L64416 32825
" />
</g></g>
<g style="fill:#840000; fill-opacity:0.0; 
stroke:#840000; stroke-width:60.000000; stroke-opacity:1; 
stroke-linecap:round; stroke-linejoin:round;">
<g transform="rotate(-90.000000 64400.000000 31750.000000)">
<text x="64400.000000" y="31750.000000"
textLength="536.181102" font-size="666.653543" lengthAdjust="spacingAndGlyphs"
text-anchor="middle" opacity="0">1</text>
</g>
<g class="stroked-text"><desc>1</desc>
<path d="M64376 31607
L64376 31892
" />
<path d="M64376 31750
L63876 31750
L63947 31797
L63995 31845
L64019 31892
" />
</g><path d="M64500 35500
L64500 37000
" />
</g>
<g style="fill:#008484; fill-opacity:0.0; 
stroke:#008484; stroke-width:60.000000; stroke-opacity:1; 
stroke-linecap:round; stroke-linejoin:round;">
<g transform="rotate(-90.000000 64500.000000 35300.000000)">
<text x="64500.000000" y="35550.000000"
textLength="560.000000" font-size="666.653543" lengthAdjust="spacingAndGlyphs"
text-anchor="start" opacity="0">G</text>
</g>
<g class="stroked-text"><desc>G</desc>
<path d="M64250 34889
L64226 34936
L64226 35008
L64250 35079
L64297 35127
L64345 35150
L64440 35174
L64511 35174
L64607 35150
L64654 35127
L64702 35079
L64726 35008
L64726 34960
L64702 34889
L64678 34865
L64511 34865
L64511 34960
" />
</g></g>
<g style="fill:#840000; fill-opacity:0.0; 
stroke:#840000; stroke-width:60.000000; stroke-opacity:1; 
stroke-linecap:round; stroke-linejoin:round;">
<g transform="rotate(-90.000000 64400.000000 36250.000000)">
<text x="64400.000000" y="36250.000000"
textLength="536.181102" font-size="666.653543" lengthAdjust="spacingAndGlyphs"
text-anchor="middle" opacity="0">2</text>
</g>
<g class="stroked-text"><desc>2</desc>
<path d="M63923 36392
L63900 36369
L63876 36321
L63876 36202
L63900 36154
L63923 36130
L63971 36107
L64019 36107
L64090 36130
L64376 36416
L64376 36107
" />
</g><path d="M67500 34000
L68500 34000
" />
<text x="68000.000000" y="33900.000000"
textLength="536.181102" font-size="666.653543" lengthAdjust="spacingAndGlyphs"
text-anchor="middle" opacity="0">3</text>
<g class="stroked-text"><desc>3</desc>
<path d="M67833 33376
L68142 33376
L67976 33566
L68047 33566
L68095 33590
L68119 33614
L68142 33661
L68142 33780
L68119 33828
L68095 33852
L68047 33876
L67904 33876
L67857 33852
L67833 33828
" />
</g><path d="M63500 34000
L62500 34000
" />
<text x="63000.000000" y="33900.000000"
textLength="536.181102" font-size="666.653543" lengthAdjust="spacingAndGlyphs"
text-anchor="middle" opacity="0">6</text>
<g class="stroked-text"><desc>6</desc>
<path d="M63095 33376
L63000 33376
L62952 33400
L62928 33423
L62880 33495
L62857 33590
L62857 33780
L62880 33828
L62904 33852
L62952 33876
L63047 33876
L63095 33852
L63119 33828
L63142 33780
L63142 33661
L63119 33614
L63095 33590
L63047 33566
L62952 33566
L62904 33590
L62880 33614
L62857 33661
" />
</g></g>
<g style="fill:#008484; fill-opacity:0.0; 
stroke:#008484; stroke-width:60.000000; stroke-opacity:1; 
stroke-linecap:round; stroke-linejoin:round;">
<text x="66000.000000" y="36750.000000"
textLength="2012.362205" font-size="666.653543" lengthAdjust="spacingAndGlyphs"
text-anchor="middle" opacity="0">U503</text>
<g class="stroked-text"><desc>U503</desc>
<path d="M65142 36226
L65142 36630
L65166 36678
L65190 36702
L65238 36726
L65333 36726
L65380 36702
L65404 36678
L65428 36630
L65428 36226
" />
<path d="M65904 36226
L65666 36226
L65642 36464
L65666 36440
L65714 36416
L65833 36416
L65880 36440
L65904 36464
L65928 36511
L65928 36630
L65904 36678
L65880 36702
L65833 36726
L65714 36726
L65666 36702
L65642 36678
" />
<path d="M66238 36226
L66285 36226
L66333 36250
L66357 36273
L66380 36321
L66404 36416
L66404 36535
L66380 36630
L66357 36678
L66333 36702
L66285 36726
L66238 36726
L66190 36702
L66166 36678
L66142 36630
L66119 36535
L66119 36416
L66142 36321
L66166 36273
L66190 36250
L66238 36226
" />
<path d="M66571 36226
L66880 36226
L66714 36416
L66785 36416
L66833 36440
L66857 36464
L66880 36511
L66880 36630
L66857 36678
L66833 36702
L66785 36726
L66642 36726
L66595 36702
L66571 36678
" />
</g><text x="67000.000000" y="35750.000000"
textLength="3393.346457" font-size="666.653543" lengthAdjust="spacingAndGlyphs"
text-anchor="middle" opacity="0">BGA2818</text>
<g class="stroked-text"><desc>BGA2818</desc>
<path d="M65619 35464
L65690 35488
L65714 35511
L65738 35559
L65738 35630
L65714 35678
L65690 35702
L65642 35726
L65452 35726
L65452 35226
L65619 35226
L65666 35250
L65690 35273
L65714 35321
L65714 35369
L65690 35416
L65666 35440
L65619 35464
L65452 35464
" />
<path d="M66214 35250
L66166 35226
L66095 35226
L66023 35250
L65976 35297
L65952 35345
L65928 35440
L65928 35511
L65952 35607
L65976 35654
L66023 35702
L66095 35726
L66142 35726
L66214 35702
L66238 35678
L66238 35511
L66142 35511
" />
<path d="M66428 35583
L66666 35583
" />
<path d="M66380 35726
L66547 35226
L66714 35726
" />
<path d="M66857 35273
L66880 35250
L66928 35226
L67047 35226
L67095 35250
L67119 35273
L67142 35321
L67142 35369
L67119 35440
L66833 35726
L67142 35726
" />
<path d="M67428 35440
L67380 35416
L67357 35392
L67333 35345
L67333 35321
L67357 35273
L67380 35250
L67428 35226
L67523 35226
L67571 35250
L67595 35273
L67619 35321
L67619 35345
L67595 35392
L67571 35416
L67523 35440
L67428 35440
L67380 35464
L67357 35488
L67333 35535
L67333 35630
L67357 35678
L67380 35702
L67428 35726
L67523 35726
L67571 35702
L67595 35678
L67619 35630
L67619 35535
L67595 35488
L67571 35464
L67523 35440
" />
<path d="M68095 35726
L67809 35726
" />
<path d="M67952 35726
L67952 35226
L67904 35297
L67857 35345
L67809 35369
" />
<path d="M68380 35440
L68333 35416
L68309 35392
L68285 35345
L68285 35321
L68309 35273
L68333 35250
L68380 35226
L68476 35226
L68523 35250
L68547 35273
L68571 35321
L68571 35345
L68547 35392
L68523 35416
L68476 35440
L68380 35440
L68333 35464
L68309 35488
L68285 35535
L68285 35630
L68309 35678
L68333 35702
L68380 35726
L68476 35726
L68523 35702
L68547 35678
L68571 35630
L68571 35535
L68547 35488
L68523 35464
L68476 35440
" />
</g></g>
</g>
<g style="fill:#008484; fill-opacity:0.0; 
stroke:#008484; stroke-width:62.519685; stroke-opacity:1; 
stroke-linecap:round; stroke-linejoin:round;">
</g>
<g style="fill:#008484; fill-opacity:0.0; 
stroke:#008484; stroke-width:60.000000; stroke-opacity:1; 
stroke-linecap:round; stroke-linejoin:round;">
</g>
<g style="fill:#848400; fill-opacity:0.0; 
stroke:#848400; stroke-width:60.000000; stroke-opacity:1; 
stroke-linecap:round; stroke-linejoin:round;">
<text x="33425.000000" y="32250.000000"
textLength="1940.944882" font-size="666.653543" lengthAdjust="spacingAndGlyphs"
text-anchor="end" opacity="0">Input</text>
<g class="stroked-text"><desc>Input</desc>
<path d="M31633 32226
L31633 31726
" />
<path d="M31871 31892
L31871 32226
" />
<path d="M31871 31940
L31895 31916
L31942 31892
L32014 31892
L32061 31916
L32085 31964
L32085 32226
" />
<path d="M32323 31892
L32323 32392
" />
<path d="M32323 31916
L32371 31892
L32466 31892
L32514 31916
L32537 31940
L32561 31988
L32561 32130
L32537 32178
L32514 32202
L32466 32226
L32371 32226
L32323 32202
" />
<path d="M32990 31892
L32990 32226
" />
<path d="M32775 31892
L32775 32154
L32799 32202
L32847 32226
L32918 32226
L32966 32202
L32990 32178
" />
<path d="M33156 31892
L33347 31892
" />
<path d="M33228 31726
L33228 32154
L33252 32202
L33299 32226
L33347 32226
" />
</g><path style="fill:#848400; fill-opacity:0.0; 
stroke:#848400; stroke-width:60.000000; stroke-opacity:1; 
stroke-linecap:round; stroke-linejoin:round;fill:none"
d="M 34000.000000,32000.000000
33750.000000,31750.000000
33500.000000,31750.000000
33500.000000,32250.000000
33750.000000,32250.000000
Z" /> 
</g>
<g style="fill:#848400; fill-opacity:0.0; 
stroke:#848400; stroke-width:62.519685; stroke-opacity:1; 
stroke-linecap:round; stroke-linejoin:round;">
</g>
<g style="fill:#848400; fill-opacity:0.0; 
stroke:#848400; stroke-width:60.000000; stroke-opacity:1; 
stroke-linecap:round; stroke-linejoin:round;">
<text x="69075.000000" y="34250.000000"
textLength="2512.362205" font-size="666.653543" lengthAdjust="spacingAndGlyphs"
text-anchor="start" opacity="0">Output</text>
<g class="stroked-text"><desc>Output</desc>
<path d="M69319 33726
L69414 33726
L69462 33750
L69509 33797
L69533 33892
L69533 34059
L69509 34154
L69462 34202
L69414 34226
L69319 34226
L69271 34202
L69224 34154
L69200 34059
L69200 33892
L69224 33797
L69271 33750
L69319 33726
" />
<path d="M69962 33892
L69962 34226
" />
<path d="M69747 33892
L69747 34154
L69771 34202
L69819 34226
L69890 34226
L69938 34202
L69962 34178
" />
<path d="M70128 33892
L70319 33892
" />
<path d="M70200 33726
L70200 34154
L70224 34202
L70271 34226
L70319 34226
" />
<path d="M70485 33892
L70485 34392
" />
<path d="M70485 33916
L70533 33892
L70628 33892
L70676 33916
L70700 33940
L70724 33988
L70724 34130
L70700 34178
L70676 34202
L70628 34226
L70533 34226
L70485 34202
" />
<path d="M71152 33892
L71152 34226
" />
<path d="M70938 33892
L70938 34154
L70962 34202
L71009 34226
L71081 34226
L71128 34202
L71152 34178
" />
<path d="M71319 33892
L71509 33892
" />
<path d="M71390 33726
L71390 34154
L71414 34202
L71462 34226
L71509 34226
" />
</g><path style="fill:#848400; fill-opacity:0.0; 
stroke:#848400; stroke-width:60.000000; stroke-opacity:1; 
stroke-linecap:round; stroke-linejoin:round;fill:none"
d="M 68500.000000,34000.000000
68750.000000,34250.000000
69000.000000,34250.000000
69000.000000,33750.000000
68750.000000,33750.000000
Z" /> 
</g>
<g style="fill:#848400; fill-opacity:0.0; 
stroke:#848400; stroke-width:62.519685; stroke-opacity:1; 
stroke-linecap:round; stroke-linejoin:round;">
</g>
<g style="fill:#848400; fill-opacity:0.0; 
stroke:#848400; stroke-width:60.000000; stroke-opacity:1; 
stroke-linecap:round; stroke-linejoin:round;">
</g>
<g style="fill:#0000C2; fill-opacity:0.0; 
stroke:#0000C2; stroke-width:60.000000; stroke-opacity:1; 
stroke-linecap:round; stroke-linejoin:round;">
<text x="45750.000000" y="23502.480315"
textLength="2869.527559" font-size="666.653543" lengthAdjust="spacingAndGlyphs"
text-anchor="start" opacity="0">IF Strip</text>
<g class="stroked-text"><desc>IF Strip</desc>
<path d="M45899 23478
L45899 22978
" />
<path d="M46303 23216
L46137 23216
" />
<path d="M46137 23478
L46137 22978
L46375 22978
" />
<path d="M46922 23454
L46994 23478
L47113 23478
L47160 23454
L47184 23431
L47208 23383
L47208 23335
L47184 23288
L47160 23264
L47113 23240
L47018 23216
L46970 23192
L46946 23169
L46922 23121
L46922 23073
L46946 23026
L46970 23002
L47018 22978
L47137 22978
L47208 23002
" />
<path d="M47351 23145
L47541 23145
" />
<path d="M47422 22978
L47422 23407
L47446 23454
L47494 23478
L47541 23478
" />
<path d="M47708 23478
L47708 23145
" />
<path d="M47708 23240
L47732 23192
L47756 23169
L47803 23145
L47851 23145
" />
<path d="M48018 23478
L48018 23145
" />
<path d="M48018 22978
L47994 23002
L48018 23026
L48041 23002
L48018 22978
L48018 23026
" />
<path d="M48256 23145
L48256 23645
" />
<path d="M48256 23169
L48303 23145
L48399 23145
L48446 23169
L48470 23192
L48494 23240
L48494 23383
L48470 23431
L48446 23454
L48399 23478
L48303 23478
L48256 23454
" />
</g><text x="45750.000000" y="24307.480315"
textLength="3202.874016" font-size="666.653543" lengthAdjust="spacingAndGlyphs"
text-anchor="start" opacity="0">455 kHz</text>
<g class="stroked-text"><desc>455 kHz</desc>
<path d="M46113 23950
L46113 24283
" />
<path d="M45994 23759
L45875 24116
L46184 24116
" />
<path d="M46613 23783
L46375 23783
L46351 24021
L46375 23997
L46422 23974
L46541 23974
L46589 23997
L46613 24021
L46637 24069
L46637 24188
L46613 24236
L46589 24259
L46541 24283
L46422 24283
L46375 24259
L46351 24236
" />
<path d="M47089 23783
L46851 23783
L46827 24021
L46851 23997
L46899 23974
L47018 23974
L47065 23997
L47089 24021
L47113 24069
L47113 24188
L47089 24236
L47065 24259
L47018 24283
L46899 24283
L46851 24259
L46827 24236
" />
<path d="M47708 24283
L47708 23783
" />
<path d="M47756 24093
L47899 24283
" />
<path d="M47899 23950
L47708 24140
" />
<path d="M48113 24283
L48113 23783
" />
<path d="M48113 24021
L48399 24021
" />
<path d="M48399 24283
L48399 23783
" />
<path d="M48589 23950
L48851 23950
L48589 24283
L48851 24283
" />
</g><text x="45750.000000" y="25112.480315"
textLength="9964.763780" font-size="666.653543" lengthAdjust="spacingAndGlyphs"
text-anchor="start" opacity="0">Provides about 60dB gain</text>
<g class="stroked-text"><desc>Provides about 60dB gain</desc>
<path d="M45899 25088
L45899 24588
L46089 24588
L46137 24612
L46160 24636
L46184 24683
L46184 24755
L46160 24802
L46137 24826
L46089 24850
L45899 24850
" />
<path d="M46399 25088
L46399 24755
" />
<path d="M46399 24850
L46422 24802
L46446 24779
L46494 24755
L46541 24755
" />
<path d="M46780 25088
L46732 25064
L46708 25041
L46684 24993
L46684 24850
L46708 24802
L46732 24779
L46780 24755
L46851 24755
L46899 24779
L46922 24802
L46946 24850
L46946 24993
L46922 25041
L46899 25064
L46851 25088
L46780 25088
" />
<path d="M47113 24755
L47232 25088
L47351 24755
" />
<path d="M47541 25088
L47541 24755
" />
<path d="M47541 24588
L47518 24612
L47541 24636
L47565 24612
L47541 24588
L47541 24636
" />
<path d="M47994 25088
L47994 24588
" />
<path d="M47994 25064
L47946 25088
L47851 25088
L47803 25064
L47780 25041
L47756 24993
L47756 24850
L47780 24802
L47803 24779
L47851 24755
L47946 24755
L47994 24779
" />
<path d="M48422 25064
L48375 25088
L48280 25088
L48232 25064
L48208 25017
L48208 24826
L48232 24779
L48280 24755
L48375 24755
L48422 24779
L48446 24826
L48446 24874
L48208 24921
" />
<path d="M48637 25064
L48684 25088
L48780 25088
L48827 25064
L48851 25017
L48851 24993
L48827 24945
L48780 24921
L48708 24921
L48660 24898
L48637 24850
L48637 24826
L48660 24779
L48708 24755
L48780 24755
L48827 24779
" />
<path d="M49660 25088
L49660 24826
L49637 24779
L49589 24755
L49494 24755
L49446 24779
" />
<path d="M49660 25064
L49613 25088
L49494 25088
L49446 25064
L49422 25017
L49422 24969
L49446 24921
L49494 24898
L49613 24898
L49660 24874
" />
<path d="M49899 25088
L49899 24588
" />
<path d="M49899 24779
L49946 24755
L50041 24755
L50089 24779
L50113 24802
L50137 24850
L50137 24993
L50113 25041
L50089 25064
L50041 25088
L49946 25088
L49899 25064
" />
<path d="M50422 25088
L50375 25064
L50351 25041
L50327 24993
L50327 24850
L50351 24802
L50375 24779
L50422 24755
L50494 24755
L50541 24779
L50565 24802
L50589 24850
L50589 24993
L50565 25041
L50541 25064
L50494 25088
L50422 25088
" />
<path d="M51018 24755
L51018 25088
" />
<path d="M50803 24755
L50803 25017
L50827 25064
L50875 25088
L50946 25088
L50994 25064
L51018 25041
" />
<path d="M51184 24755
L51375 24755
" />
<path d="M51256 24588
L51256 25017
L51280 25064
L51327 25088
L51375 25088
" />
<path d="M52137 24588
L52041 24588
L51994 24612
L51970 24636
L51922 24707
L51899 24802
L51899 24993
L51922 25041
L51946 25064
L51994 25088
L52089 25088
L52137 25064
L52160 25041
L52184 24993
L52184 24874
L52160 24826
L52137 24802
L52089 24779
L51994 24779
L51946 24802
L51922 24826
L51899 24874
" />
<path d="M52494 24588
L52541 24588
L52589 24612
L52613 24636
L52637 24683
L52660 24779
L52660 24898
L52637 24993
L52613 25041
L52589 25064
L52541 25088
L52494 25088
L52446 25064
L52422 25041
L52399 24993
L52375 24898
L52375 24779
L52399 24683
L52422 24636
L52446 24612
L52494 24588
" />
<path d="M53089 25088
L53089 24588
" />
<path d="M53089 25064
L53041 25088
L52946 25088
L52899 25064
L52875 25041
L52851 24993
L52851 24850
L52875 24802
L52899 24779
L52946 24755
L53041 24755
L53089 24779
" />
<path d="M53494 24826
L53565 24850
L53589 24874
L53613 24921
L53613 24993
L53589 25041
L53565 25064
L53518 25088
L53327 25088
L53327 24588
L53494 24588
L53541 24612
L53565 24636
L53589 24683
L53589 24731
L53565 24779
L53541 24802
L53494 24826
L53327 24826
" />
<path d="M54422 24755
L54422 25160
L54399 25207
L54375 25231
L54327 25255
L54256 25255
L54208 25231
" />
<path d="M54422 25064
L54375 25088
L54280 25088
L54232 25064
L54208 25041
L54184 24993
L54184 24850
L54208 24802
L54232 24779
L54280 24755
L54375 24755
L54422 24779
" />
<path d="M54875 25088
L54875 24826
L54851 24779
L54803 24755
L54708 24755
L54660 24779
" />
<path d="M54875 25064
L54827 25088
L54708 25088
L54660 25064
L54637 25017
L54637 24969
L54660 24921
L54708 24898
L54827 24898
L54875 24874
" />
<path d="M55113 25088
L55113 24755
" />
<path d="M55113 24588
L55089 24612
L55113 24636
L55137 24612
L55113 24588
L55113 24636
" />
<path d="M55351 24755
L55351 25088
" />
<path d="M55351 24802
L55375 24779
L55422 24755
L55494 24755
L55541 24779
L55565 24826
L55565 25088
" />
</g></g>
<g style="fill:#008400; fill-opacity:0.0; 
stroke:#008400; stroke-width:60.000000; stroke-opacity:1; 
stroke-linecap:round; stroke-linejoin:round;">
<path d="M66500 25500
L66500 26500
" />
<path d="M48250 36000
L48500 36000
" />
<path d="M51250 36250
L51250 36750
" />
<path d="M48500 36000
L48500 37250
" />
<path d="M50750 36250
L51250 36250
" />
<path d="M39750 37250
L44500 37250
" />
<path d="M39750 36000
L39750 37250
" />
<path d="M48500 37250
L44500 37250
" />
<path d="M40250 36000
L39750 36000
" />
<path d="M36000 23750
L38500 23750
" />
<path d="M38500 27750
L38500 28250
" />
<path d="M38500 23250
L38500 23750
" />
<path d="M38500 23750
L38500 24750
" />
<path d="M48250 32000
L48750 32000
" />
<path d="M36000 29000
L36000 23750
" />
<path d="M36000 35000
L36000 35750
" />
<path d="M40000 32000
L40250 32000
" />
<path d="M50750 35250
L50750 36250
" />
<path d="M53500 37250
L58250 37250
" />
<path d="M54000 36000
L53500 36000
" />
<path d="M51750 36250
L51750 35250
" />
<path d="M53500 36000
L53500 37250
" />
<path d="M62000 32000
L62250 32000
" />
<path d="M64500 37000
L64500 38500
" />
<path d="M62250 34000
L62500 34000
" />
<path d="M58250 37250
L58250 38750
" />
<path d="M62000 36000
L62250 36000
" />
<path d="M62250 36000
L62250 37250
" />
<path d="M62250 37250
L58250 37250
" />
<path d="M51250 36250
L51750 36250
" />
<path d="M62250 32000
L62250 34000
" />
<path d="M53750 32000
L54000 32000
" />
<path d="M44500 37250
L44500 38750
" />
<path d="M66500 30000
L66500 30500
" />
<path d="M66500 26500
L66500 27000
" />
<path d="M64500 31000
L64500 26500
" />
<path d="M64500 26500
L66500 26500
" />
</g>
<g style="fill:#008400; fill-opacity:1.0; 
stroke:#008400; stroke-width:60.000000; stroke-opacity:1; 
stroke-linecap:round; stroke-linejoin:round;">
<circle cx="51250.000000" cy="36250.000000" r="180.000000" /> 
<circle cx="44500.000000" cy="37250.000000" r="180.000000" /> 
<circle cx="38500.000000" cy="23750.000000" r="180.000000" /> 
<circle cx="58250.000000" cy="37250.000000" r="180.000000" /> 
<circle cx="66500.000000" cy="26500.000000" r="180.000000" /> 
</g> 
</svg>
